<?xml version="1.0" encoding="UTF-8" standalone="no"?>
<svg
   xmlns:dc="http://purl.org/dc/elements/1.1/"
   xmlns:cc="http://creativecommons.org/ns#"
   xmlns:rdf="http://www.w3.org/1999/02/22-rdf-syntax-ns#"
   xmlns:svg="http://www.w3.org/2000/svg"
   xmlns="http://www.w3.org/2000/svg"
   xmlns:sodipodi="http://sodipodi.sourceforge.net/DTD/sodipodi-0.dtd"
   xmlns:inkscape="http://www.inkscape.org/namespaces/inkscape"
   width="121.89"
   height="98.8104"
   id="svg2"
   version="1.1"
   inkscape:version="0.47 r22583"
   sodipodi:docname="leidenuniv.eps">
  <metadata
     id="metadata228">
    <rdf:RDF>
      <cc:Work
         rdf:about="">
        <dc:format>image/svg+xml</dc:format>
        <dc:type
           rdf:resource="http://purl.org/dc/dcmitype/StillImage" />
        <dc:title></dc:title>
      </cc:Work>
    </rdf:RDF>
  </metadata>
  <sodipodi:namedview
     pagecolor="#ffffff"
     bordercolor="#666666"
     borderopacity="1"
     objecttolerance="10"
     gridtolerance="10"
     guidetolerance="10"
     inkscape:pageopacity="0"
     inkscape:pageshadow="2"
     inkscape:window-width="796"
     inkscape:window-height="815"
     id="namedview226"
     showgrid="false"
     inkscape:snap-bbox="false"
     showguides="true"
     inkscape:guide-bbox="true"
     inkscape:zoom="3.3777254"
     inkscape:cx="66.201555"
     inkscape:cy="41.556822"
     inkscape:window-x="131"
     inkscape:window-y="186"
     inkscape:window-maximized="0"
     inkscape:current-layer="svg2" />
  <defs
     id="defs4">
    <inkscape:perspective
       sodipodi:type="inkscape:persp3d"
       inkscape:vp_x="0 : 49.405201 : 1"
       inkscape:vp_y="0 : 1000 : 0"
       inkscape:vp_z="121.89 : 49.405201 : 1"
       inkscape:persp3d-origin="60.945 : 32.936801 : 1"
       id="perspective230" />
    <marker
       id="ArrowEnd"
       viewBox="0 0 10 10"
       refX="0"
       refY="5"
       markerUnits="strokeWidth"
       markerWidth="4"
       markerHeight="3"
       orient="auto">
      <path
         d="M 0 0 L 10 5 L 0 10 z"
         id="path7" />
    </marker>
    <marker
       id="ArrowStart"
       viewBox="0 0 10 10"
       refX="10"
       refY="5"
       markerUnits="strokeWidth"
       markerWidth="4"
       markerHeight="3"
       orient="auto">
      <path
         d="M 10 0 L 0 5 L 10 10 z"
         id="path10" />
    </marker>
  </defs>
  <g
     id="g12">
    <path
       style="stroke:none; fill-rule:evenodd; fill:#0018d1"
       d="M 41.957 22.9164C 42.336 22.8464 42.816 22.7564 43.223 22.6464L 43.223 25.3344C 43.223 25.6704 43.23 25.6854 43.637 25.7244L 43.637 25.9284L 41.996 25.9284L 41.996 25.7244C 42.398 25.6854 42.41 25.6704 42.41 25.3344L 42.41 23.3694C 42.41 23.1504 42.387 23.1194 42.223 23.1114L 41.957 23.0964L 41.957 22.9164"
       id="path50" />
    <path
       style="stroke:none; fill-rule:evenodd; fill:#0018d1"
       d="M 76.937 22.7094L 76.996 22.7754C 76.484 23.8074 76.015 24.8854 75.582 25.9244L 74.844 25.9864L 74.801 25.9044C 75.363 25.0494 75.898 24.1784 76.359 23.3304L 75.297 23.3304C 74.957 23.3304 74.937 23.3534 74.82 23.6504L 74.59 23.6504C 74.656 23.1854 74.687 22.9324 74.719 22.7094L 76.937 22.7094"
       id="path52" />
    <path
       style="stroke:none; fill-rule:evenodd; fill:#0018d1"
       d="M 79.172 22.7054L 79.066 23.2994L 77.75 23.2994L 77.64 23.9944C 77.805 23.9164 78.027 23.8464 78.23 23.8464C 78.953 23.8464 79.305 24.3144 79.305 24.7404C 79.305 25.0724 79.156 25.3924 78.785 25.6664C 78.531 25.8504 78.172 25.9784 77.894 25.9864C 77.601 25.9864 77.312 25.8654 77.211 25.7874C 77.137 25.7324 77.117 25.6504 77.14 25.5644C 77.172 25.4594 77.23 25.3694 77.328 25.2994C 77.402 25.2484 77.473 25.2524 77.527 25.2954C 77.644 25.3894 77.945 25.6624 78.168 25.6624C 78.39 25.6624 78.539 25.4744 78.539 25.0574C 78.539 24.5924 78.265 24.3034 77.836 24.3034C 77.621 24.3034 77.422 24.3654 77.324 24.3924L 77.539 22.7014L 79.172 22.7014"
       id="path54" />
    <path
       style="stroke:none; fill-rule:evenodd; fill:#0018d1"
       d="M 46.144 22.7054L 46.043 23.2994L 44.723 23.2994L 44.613 23.9944C 44.777 23.9164 45.004 23.8464 45.207 23.8464C 45.93 23.8464 46.281 24.3144 46.281 24.7404C 46.281 25.0724 46.133 25.3924 45.762 25.6664C 45.508 25.8504 45.144 25.9784 44.867 25.9864C 44.574 25.9864 44.289 25.8654 44.183 25.7874C 44.109 25.7324 44.09 25.6504 44.113 25.5644C 44.144 25.4594 44.203 25.3694 44.305 25.2994C 44.379 25.2484 44.445 25.2524 44.5 25.2954C 44.621 25.3894 44.918 25.6624 45.14 25.6624C 45.363 25.6624 45.512 25.4744 45.512 25.0574C 45.512 24.5924 45.238 24.3034 44.808 24.3034C 44.597 24.3034 44.398 24.3654 44.297 24.3924L 44.512 22.7014L 46.144 22.7014"
       id="path56" />
    <path
       style="stroke:#0018d1; stroke-width:0.49159999999999998; fill:none"
       d="M 27.469 41.0414C 27.469 19.7994 42.301 2.57642 60.601 2.57642C 78.902 2.57642 93.734 19.7994 93.734 41.0414C 93.734 62.2834 78.898 79.5024 60.601 79.5024C 42.301 79.5024 27.469 62.2834 27.469 41.0414z"
       id="path58" />
    <path
       style="stroke:none; fill-rule:evenodd; fill:#0018d1"
       d="M 59.445 17.7014C 59.531 17.8614 59.789 17.9434 59.957 17.8964C 60.223 17.8224 60.394 17.5804 60.422 17.4944C 60.254 17.4904 60.219 17.4864 60.008 17.5174C 59.894 17.5374 59.906 17.6424 59.777 17.6034C 59.637 17.5604 59.578 17.6194 59.445 17.7014"
       id="path60" />
    <path
       style="stroke:none; fill-rule:evenodd; fill:#0018d1"
       d="M 59.555 16.9864C 59.441 16.9984 59.355 17.1114 59.461 17.1854C 59.531 17.2404 59.531 17.0764 59.668 17.1504C 59.719 17.1784 59.805 17.1854 59.871 17.1314C 59.933 17.0724 60.023 17.0724 60.074 17.0924C 60.152 17.1194 60.215 16.9244 60.051 16.9084C 59.973 16.9004 59.89 16.9164 59.828 16.9674C 59.742 17.0334 59.765 16.9984 59.683 16.9944C 59.613 16.9904 59.633 16.9784 59.551 16.9864"
       id="path62" />
    <path
       style="stroke:none; fill-rule:evenodd; fill:#0018d1"
       d="M 60.109 15.9164C 60.109 15.9164 60.109 15.9204 60.109 15.9204C 60.109 15.9204 60.109 15.9204 60.109 15.9164"
       id="path64" />
    <path
       style="stroke:none; fill-rule:evenodd; fill:#0018d1"
       d="M 60.961 15.4744C 60.59 15.4904 60.012 15.6624 59.926 15.7604C 59.883 15.8104 59.89 15.8894 59.941 15.9324C 59.992 15.9744 60.066 15.9674 60.109 15.9164C 60.113 15.9124 60.074 15.9354 60.172 15.8654C 60.172 15.8854 60.168 15.9044 60.168 15.9284C 60.183 16.0494 60.293 16.1354 60.414 16.1194C 60.535 16.1034 60.625 15.9944 60.609 15.8734C 60.597 15.8034 60.558 15.7484 60.504 15.7134C 60.629 15.6744 60.781 15.6464 60.969 15.6394C 61.035 15.6354 61.09 15.6074 61.086 15.5454C 61.082 15.4744 61.027 15.4714 60.961 15.4744"
       id="path66" />
    <path
       style="stroke:none; fill-rule:evenodd; fill:#0018d1"
       d="M 59.515 15.4124C 60.097 15.0924 60.637 14.8224 61.496 14.8144C 62.234 14.8104 62.347 15.3574 62.347 15.3574C 62.605 15.0964 62.453 14.4124 61.574 14.4284C 60.351 14.4514 59.793 15.0604 59.515 15.4124"
       id="path68" />
    <path
       style="stroke:none; fill-rule:evenodd; fill:#0018d1"
       d="M 60.496 34.0964C 59.027 33.9124 58.871 32.9514 58.863 32.5334C 58.859 32.1894 59.215 32.3464 58.597 32.0214C 57.402 31.3854 56.484 31.8464 56.484 31.8464L 56.637 31.9984C 57.621 31.9984 58.039 32.4164 58.039 32.4164C 57.859 34.9864 59.609 34.8184 59.609 34.8184C 59.898 35.3034 60.355 35.4744 60.769 35.5214C 60.914 35.4714 61.094 35.4164 61.316 35.3504C 60.543 35.0414 60.496 34.0964 60.496 34.0964"
       id="path70" />
    <path
       style="stroke:none; fill-rule:evenodd; fill:#0018d1"
       d="M 64.742 34.5494C 64.754 34.5104 65.449 34.3344 65.457 34.2954C 65.531 33.9124 65.808 33.7524 65.949 33.6854C 66.07 33.6354 66.125 33.5764 66.14 33.4474C 66.191 33.0644 66.16 32.9824 65.887 32.6194C 65.078 31.5414 65.012 30.5144 64.961 30.3694C 64.914 30.2284 64.844 30.3924 64.844 30.3924C 64.844 30.3924 65.297 32.6664 64.484 32.7644C 64.484 32.7644 64.605 33.8774 63.476 34.1034C 63.359 34.1274 63.281 34.1974 63.289 34.2954C 63.293 34.4824 63.168 34.7564 63.094 34.9004C 63.726 34.7644 64.269 34.6894 64.808 34.6704C 64.797 34.6354 64.773 34.5964 64.742 34.5494"
       id="path72" />
    <path
       style="stroke:none; fill-rule:evenodd; fill:#0018d1"
       d="M 64.84 29.4084L 64.808 29.2954C 64.808 29.2954 65.269 28.8924 65.887 28.8924C 66.5 28.8924 66.726 29.0024 67.055 29.3964C 67.25 29.6314 67.328 29.8504 67.176 30.0604C 67.004 30.3074 66.519 30.0724 66.519 30.0724L 66.355 29.5924C 66.355 29.5924 66.172 29.2754 65.68 29.2524C 65.262 29.2324 64.988 29.3814 64.84 29.4084"
       id="path74" />
    <path
       style="stroke:none; fill-rule:evenodd; fill:#0018d1"
       d="M 53.625 26.1584L 53.84 26.2524C 53.625 26.7134 53.324 27.5024 53.777 28.0964C 54.086 28.4944 54.801 28.4394 55.191 28.3104C 55.32 28.2714 55.086 29.0414 54.515 29.7564C 53.777 30.6784 52.918 30.4904 52.855 28.7404C 52.812 27.5104 53.07 26.5294 53.625 26.1584"
       id="path76" />
    <path
       style="stroke:none; fill-rule:evenodd; fill:#0018d1"
       d="M 64.144 54.6824C 63.394 54.1234 62.504 53.3104 61.847 52.2604C 60.129 49.4944 59.879 47.1784 59.894 40.8464C 59.894 40.5924 59.898 40.3504 59.902 40.1114L 58.976 40.0174C 58.976 40.0174 58.777 46.6624 58.777 47.3924C 58.777 48.3924 59.058 49.3344 59.215 47.4554C 59.293 46.5214 59.07 43.5174 59.32 43.5174C 59.668 43.5174 59.746 54.8304 59.371 54.8304C 58.59 54.8304 58.402 54.6424 57.289 54.7054C 56.871 54.2674 55.851 54.2604 55.691 54.3774C 55.648 54.4044 56.015 54.5804 56.457 54.7754L 44.437 57.8854L 43.707 57.4514L 38.777 59.5104L 44.246 58.9784L 44.547 58.1504L 56.765 54.9164C 57.297 55.1464 57.836 55.3734 57.859 55.4004C 58.004 55.5334 59.531 55.2914 59.488 55.8894C 59.469 56.2094 59.047 56.4594 58.605 56.6394C 58.183 56.8074 57.594 56.6544 57.617 56.7524C 57.648 56.8854 58.664 57.0254 59.019 56.8694C 59.394 56.7054 60.555 56.3264 61.305 55.5644C 61.305 55.5644 63.933 55.3814 64.289 54.8424C 64.289 54.8424 64.234 54.7914 64.144 54.6824"
       id="path78" />
    <path
       style="stroke:none; fill-rule:evenodd; fill:#0018d1"
       d="M 44.121 58.0844L 40.711 59.0174L 43.961 58.5174L 44.117 58.0804"
       id="path80" />
    <path
       style="stroke:none; fill-rule:evenodd; fill:#0018d1"
       d="M 44.871 37.5724C 44.871 37.5724 46.426 37.8034 46.527 36.9434C 46.574 36.5334 46.32 36.3964 46.097 36.4324C 45.898 36.4634 45.726 36.6314 45.906 36.9204C 46.008 37.0724 46.203 37.3774 44.871 37.5764"
       id="path82" />
    <path
       style="stroke:none; fill-rule:evenodd; fill:#0018d1"
       d="M 48.316 42.9324C 48.25 43.0574 48.148 43.2674 47.98 43.0174C 47.746 42.6624 46.617 41.5254 46.617 41.5254C 48.609 41.4634 48.023 40.2054 48.023 40.2054C 47.918 40.3344 47.73 40.5214 47.476 40.6034C 46.836 40.8184 46.492 40.3964 46.785 40.2054C 47.894 39.4944 48.672 38.3814 48.672 38.3814C 49.512 38.4674 49.617 37.9634 49.617 37.9634C 49.387 38.0254 48.883 37.9824 48.883 37.8144C 48.883 37.6274 49.594 37.3144 49.594 37.3144C 49.426 37.1664 48.738 37.3654 48.738 37.3654C 48.719 37.2604 49.219 36.6854 49.219 36.6854C 48.863 36.6854 48.426 37.0534 48.426 37.0534C 48.32 36.8184 48.566 36.3924 48.566 36.3924C 47.812 36.7674 47.98 37.7754 47.98 37.7754L 46.156 39.2834C 46.219 38.5924 45.988 38.2994 45.988 38.2994C 45.277 39.6624 44.445 39.3264 44.207 39.1154C 43.781 38.7484 44.078 38.4824 44.32 38.4244C 44.512 38.3814 44.699 38.4784 44.773 38.3614C 44.883 38.1894 44.824 37.9514 44.711 37.9004C 44.574 37.8384 43.89 38.1114 43.773 38.0924C 43.66 38.0724 43.922 37.3464 44.101 37.3144C 44.777 37.1894 44.836 37.2364 44.847 37.1234C 44.867 36.8814 44.902 36.7134 44.781 36.6744C 44.512 36.5764 44.265 36.4324 44.265 36.4324C 43.941 36.0214 43.797 36.1664 43.508 36.1664C 43.269 36.1664 42.918 36.3264 42.719 36.3774C 42.625 36.4044 42.476 36.4204 42.426 36.3654C 41.988 35.9324 41.523 36.3774 41.523 36.3774C 41.723 36.3574 42.058 36.6194 41.953 36.6934C 41.695 36.8734 41.879 37.6274 41.949 37.8344C 42.152 38.4434 41.195 39.1354 41.195 39.1354C 41.738 39.4714 42.285 39.0644 42.285 39.0644C 42.226 39.6824 41.066 40.0024 41.066 40.0024C 41.402 40.6154 42.437 40.4634 42.648 40.4204C 42.894 40.3734 42.855 40.7014 42.523 40.8104C 41.715 41.0804 40.594 42.0684 40.594 42.0684C 40.379 42.0964 39.945 42.1074 39.574 41.8224C 39.394 41.6824 39.387 41.3854 39.469 41.0294C 39.562 40.6154 40.07 39.9324 40.437 39.4284C 40.562 39.2604 40.68 39.1034 40.765 38.9744C 40.797 38.9284 41.504 37.8694 41.094 37.1784C 40.93 36.9044 40.625 36.7054 40.18 36.6974C 40.07 36.6974 39.781 36.7174 39.781 36.7174C 39.187 36.1464 38.652 36.8614 38.488 37.4984C 38.285 38.2954 38.59 39.5884 38.59 39.5884C 38.59 39.5884 38.469 38.9904 39.265 38.5024C 39.773 38.1894 40.129 37.5804 39.922 37.1464C 39.922 37.1464 40.07 37.1234 40.223 37.1274C 40.449 37.1314 40.64 37.2364 40.73 37.3964C 40.937 37.7364 40.648 38.4004 40.418 38.7404C 40.336 38.8614 40.223 39.0174 40.101 39.1824C 39.687 39.7404 39.176 40.4354 39.058 40.9354C 38.941 41.4354 39.012 41.8304 39.265 42.1074C 39.594 42.4674 40.137 42.5104 40.441 42.5064C 40.355 42.6934 40.453 42.9284 40.285 42.9904C 40.066 43.0724 39.551 43.2644 39.551 43.2644C 40.137 43.7484 40.285 44.4204 40.012 44.6704C 39.68 44.9744 39.234 44.5884 39.234 44.5884C 38.879 46.6424 41.668 47.6704 41.582 47.7954C 41.492 47.9324 41.394 47.9004 41.269 48.1314C 40.98 48.6584 41.543 48.7794 41.543 48.7794C 41.5 48.4244 41.68 48.0764 41.871 48.0574C 42.058 48.0334 42.402 48.8224 42.402 48.8224C 42.547 48.6114 42.379 48.2564 42.379 48.2564C 42.59 48.1704 42.988 48.6744 42.988 48.6744C 43.113 48.3614 42.812 48.0024 42.812 48.0024C 43.129 47.8964 43.555 48.4004 43.555 48.4004C 43.574 47.3534 42.734 47.3344 42.316 47.3104C 41.262 47.2604 41.289 45.4044 41.289 45.4044C 42.004 46.3074 42.84 45.9904 42.84 45.9904C 42.465 45.8034 42.297 45.4474 42.34 45.0494C 42.484 43.6624 42.211 43.4744 42.109 43.3304C 41.996 43.1744 42.277 43.2444 42.277 43.2444C 42.484 43.9354 43.847 44.9244 43.847 44.9244C 43.597 44.9864 43.199 45.1744 43.199 45.1744C 43.512 46.1584 45.859 46.4324 46.008 46.4744C 46.535 46.6274 46.238 47.3964 46.238 47.3964C 46.738 47.3104 46.656 46.9204 46.656 46.9204C 47.242 46.9084 47.187 47.5214 47.187 47.5214C 47.676 47.3144 47.301 46.8654 47.437 46.8104C 47.723 46.6974 48.055 47.1314 48.055 47.1314C 48.168 46.6004 47.664 46.1234 47.664 46.1234C 47.859 45.9824 48.367 46.0844 48.367 46.0844C 48.074 45.2174 47.203 45.7874 47.035 45.9164C 46.89 46.0214 46.797 46.1234 46.601 45.9554C 46.121 45.5454 45.398 45.0064 45.398 45.0064C 46.594 44.9864 46.594 44.2954 46.594 44.2954C 45.984 44.2954 45.758 44.1274 45.629 43.9354C 44.816 42.7174 43.637 42.7644 43.387 42.7404C 43.047 42.7134 43.262 42.4714 43.262 42.4714C 44.183 42.3854 44.961 41.9674 44.961 41.9674C 46.113 43.1824 47.097 43.3504 47.18 43.3734C 47.273 43.3924 47.433 43.4554 47.433 43.7054C 47.433 44.2324 47.683 44.3774 47.683 44.3774C 47.683 44.2714 47.683 43.8964 48.082 43.8734C 48.504 43.8504 48.586 44.4824 48.586 44.4824C 49.008 44.2914 48.797 43.5804 48.797 43.5804C 49.152 43.6004 49.426 43.9354 49.426 43.9354C 49.613 43.4554 48.84 43.1824 48.84 43.1824C 48.988 43.0764 49.594 43.0964 49.594 43.0964C 49.277 42.5294 48.504 42.5724 48.312 42.9284L 48.316 42.9324zM 43.597 36.8104C 43.597 36.7644 43.613 36.7214 43.637 36.6854L 43.422 36.6744C 43.371 36.6784 43.336 36.6744 43.332 36.6234C 43.324 36.5724 43.359 36.5604 43.41 36.5574L 44.051 36.5294C 44.101 36.5254 44.144 36.5604 44.148 36.6114C 44.152 36.6624 44.113 36.7094 44.062 36.7094L 43.926 36.7014C 43.945 36.7324 43.957 36.7674 43.957 36.8104C 43.957 36.9244 43.875 37.0174 43.777 37.0174C 43.676 37.0174 43.597 36.9244 43.597 36.8104"
       id="path84" />
    <path
       style="stroke:none; fill-rule:evenodd; fill:#0018d1"
       d="M 81.008 48.5064C 80.988 48.6114 80.973 48.7404 80.879 48.7674C 80.734 48.8104 80.715 48.8224 80.625 48.8924C 80.508 48.9864 80.531 49.0254 80.68 49.0294C 80.93 49.0414 81.195 48.6394 81.211 48.5644C 81.23 48.4864 81.441 48.3574 81.535 48.3144C 81.66 48.2604 81.539 48.1234 81.539 48.1234L 81.305 48.0724C 81.34 47.8694 81.301 47.7364 81.23 47.6424C 81.523 47.6394 82.019 47.6004 82.199 47.3924C 82.258 47.3224 82.422 47.1974 82.406 47.1114C 82.398 47.0724 82.344 46.9124 82.269 46.8654C 82.09 46.7604 81.664 46.7364 81.406 46.8264C 80.933 46.9824 80.687 46.7994 80.629 46.7284C 80.605 46.6974 80.613 46.6354 80.652 46.5534C 80.734 46.6194 80.965 46.5604 81.07 46.5144C 81.215 46.4474 81.242 46.2674 81.094 46.2324C 80.672 46.1314 80.582 46.3894 80.582 46.3894C 80.465 46.5804 80.445 46.7214 80.523 46.8144C 80.668 46.9944 81.097 47.0724 81.449 46.9554C 81.707 46.8694 82.078 46.9124 82.199 46.9864C 82.238 47.0064 82.199 47.1664 82.203 47.1744C 82.211 47.2214 82.129 47.2644 82.094 47.3034C 81.93 47.4944 81.301 47.5144 81.047 47.5024C 80.695 47.3504 80.262 47.6074 80.125 47.7054C 79.93 47.8464 79.793 47.9004 79.691 47.8534C 79.484 47.7564 79.933 47.2954 79.996 47.2244C 80.07 47.1354 80.043 47.0604 79.926 47.1034C 79.488 47.2484 79.469 46.9824 79.41 46.8924C 79.336 46.7714 79.324 46.8464 79.277 46.9204C 79.203 47.0334 79.375 47.5604 78.969 47.6504C 78.223 47.8184 77.988 47.1744 77.988 47.1744L 77.871 47.2134C 77.945 47.5454 78.269 47.7324 78.355 47.7794C 78.547 47.8854 78.543 47.9474 78.555 48.0374L 78.738 48.2134C 78.719 48.2714 78.582 48.5604 78.582 48.5604C 78.562 48.6934 78.058 49.1074 78.058 49.1074C 77.91 49.1004 77.609 49.1934 77.668 49.2714C 77.84 49.5024 78.23 49.2914 78.23 49.2914C 78.234 49.1854 78.922 48.6004 79.058 48.5144C 79.058 48.5144 79.797 48.3074 80.019 48.2214C 80.223 48.1394 80.168 48.2564 80.168 48.2564C 80.043 48.4004 79.754 49.0144 79.754 49.0144C 79.547 49.0534 79.305 49.2094 79.39 49.2834C 79.582 49.4554 79.898 49.1394 79.898 49.1394C 79.855 49.0604 80.09 48.8104 80.09 48.8104L 80.394 48.1354L 80.703 47.9984C 80.703 47.9984 80.765 48.2324 80.965 48.3304C 81.168 48.4284 81.004 48.5064 81.004 48.5064"
       id="path86" />
    <path
       style="stroke:none; fill-rule:evenodd; fill:#0018d1"
       d="M 80.215 36.1894L 80.199 35.6974L 80.597 36.1314L 80.922 35.7444L 80.984 36.2054L 81.582 35.9164L 81.336 36.4204L 80.215 36.1894"
       id="path88" />
    <path
       style="stroke:none; fill-rule:evenodd; fill:#0018d1"
       d="M 73.363 36.6504C 73.363 36.6504 72.586 36.7674 72.535 36.3384C 72.512 36.1354 72.64 36.0644 72.75 36.0804C 72.851 36.0964 72.937 36.1824 72.844 36.3224C 72.797 36.4004 72.699 36.5534 73.363 36.6544"
       id="path90" />
    <path
       style="stroke:none; fill-rule:evenodd; fill:#0018d1"
       d="M 71.906 35.9004L 72.215 35.9004L 72.215 35.2564L 71.906 35.2564L 71.906 35.9004z"
       id="path92" />
    <path
       style="stroke:none; fill-rule:evenodd; fill:#0018d1"
       d="M 75.531 35.9634L 75.84 35.9634L 75.84 35.3184L 75.531 35.3184L 75.531 35.9634z"
       id="path94" />
    <path
       style="stroke:none; fill-rule:evenodd; fill:#0018d1"
       d="M 71.101 38.4284L 71.41 38.4284L 71.41 37.7834L 71.101 37.7834L 71.101 38.4284z"
       id="path96" />
    <path
       style="stroke:none; fill-rule:evenodd; fill:#0018d1"
       d="M 70.832 41.6464L 71.137 41.6464L 71.137 41.0024L 70.832 41.0024L 70.832 41.6464z"
       id="path98" />
    <path
       style="stroke:none; fill-rule:evenodd; fill:#0018d1"
       d="M 73.074 42.4594L 73.379 42.4594L 73.379 41.8144L 73.074 41.8144L 73.074 42.4594z"
       id="path100" />
    <path
       style="stroke:none; fill-rule:evenodd; fill:#0018d1"
       d="M 65.879 42.4434C 65.816 42.7174 65.781 43.2874 65.781 43.2874C 65.527 43.2214 65.035 43.3144 65.035 43.3144C 65.07 41.9474 65.359 41.8964 65.601 41.9084C 65.902 41.9284 65.914 42.2834 65.879 42.4434"
       id="path102" />
    <path
       style="stroke:none; fill-rule:evenodd; fill:#0018d1"
       d="M 66.34 36.6934C 66.031 36.6784 65.82 36.9594 65.758 37.3964C 65.683 37.8734 65.637 38.2644 65.605 38.5174C 65.691 38.5174 65.773 38.5254 65.844 38.5374C 65.945 38.2364 66.121 37.7364 66.535 37.3464C 66.535 37.3264 66.523 37.3074 66.527 37.2874C 66.582 36.8854 66.449 36.7014 66.34 36.6934"
       id="path104" />
    <path
       style="stroke:none; fill-rule:evenodd; fill:#0018d1"
       d="M 64.859 38.5764C 64.91 38.5644 64.976 38.5534 65.047 38.5454C 65.047 38.2644 65.07 37.7714 64.949 37.2714C 64.836 36.7954 64.625 36.6464 64.445 36.6004C 64.301 36.7444 64.101 36.6824 63.883 37.0534C 64.383 37.5684 64.656 38.1784 64.82 38.5804C 64.836 38.5764 64.84 38.5764 64.859 38.5724"
       id="path106" />
    <path
       style="stroke:none; fill-rule:evenodd; fill:#0018d1"
       d="M 68.433 40.9944C 68.437 40.4904 68.445 39.9904 68.445 39.4984C 68.383 39.7174 68.312 39.9434 68.215 40.1854C 68.277 40.4284 68.347 40.6974 68.433 40.9944"
       id="path108" />
    <path
       style="stroke:none; fill-rule:evenodd; fill:#0018d1"
       d="M 66.582 40.5574C 66.57 40.7834 66.648 41.1824 66.711 41.2914C 66.883 41.6154 66.48 42.4084 66.359 42.6424C 66 43.3534 66.129 43.7954 66.129 44.0214C 66.129 44.3184 65.66 44.4904 65.25 44.4244C 63.371 44.1194 64.637 41.4394 64.637 41.4394C 64.59 41.4284 64.168 41.2244 63.961 41.0374C 63.551 40.6624 63.801 40.4084 63.984 39.7794C 64.078 39.4594 64.129 39.1004 64 38.7054L 64.004 38.7054C 63.84 38.3574 63.597 37.6934 63.125 37.4044C 62.906 37.2714 62.453 37.1854 62.254 37.3504C 61.926 37.6154 61.984 38.3894 62.402 39.3574C 62.488 39.0844 62.562 38.8104 62.617 38.5494C 62.808 37.9324 63.449 38.4984 63.43 39.0024C 63.238 39.8814 62.82 40.8184 62.586 41.5534C 61.988 43.4324 63.008 45.1004 63.535 46.1824C 64.223 47.5964 64.609 50.8344 64.473 51.3034C 64.398 51.0414 63.426 47.6504 62.875 46.5804C 62.144 45.1744 61.031 43.7284 61.808 41.1274C 61.875 40.9124 61.961 40.6664 62.051 40.4084C 61.066 38.6314 61.226 37.2524 61.863 36.7324C 62.226 36.4354 62.797 36.4354 63.262 36.6194C 63.644 35.8304 64.14 35.7244 64.625 35.8424C 64.996 35.9284 65.246 36.2134 65.414 36.5334C 65.597 36.2954 65.812 36.0764 66.051 35.9634C 65.89 35.8694 65.754 35.7604 65.683 35.6544C 65.625 35.5644 65.625 35.5024 65.66 35.4434C 64.664 35.3534 63.683 35.4984 62.965 35.6544C 61.351 36.0104 60.769 36.2404 60.769 36.2404C 60.769 36.2404 60.48 37.7834 60.512 40.8854C 60.515 41.2484 60.519 41.5964 60.523 41.9284C 60.539 42.9244 60.555 43.7994 60.586 44.5844C 60.715 48.1824 61.066 49.7754 62.262 51.8464C 62.531 52.3104 62.836 52.7244 63.144 53.0964C 64.09 54.2214 65.101 54.9004 65.453 55.1234C 65.457 55.1234 65.457 55.1234 65.461 55.1274C 65.48 55.1394 65.504 55.1504 65.519 55.1624C 65.523 55.1664 65.531 55.1704 65.535 55.1704C 65.562 55.1894 65.582 55.1974 65.582 55.1974C 65.582 55.1974 65.863 54.9514 66.211 54.4984C 66.582 54.0104 67.027 53.2714 67.281 52.3104C 67.965 49.7284 68.23 47.0214 68.347 44.4944C 68.187 44.9674 68.015 45.3894 67.894 45.6584C 67.57 46.3814 66.871 48.8964 66.555 51.1784C 66.305 49.7954 66.836 47.0214 67.262 45.7174C 67.789 44.0924 68.183 43.2014 67.941 41.9354L 67.777 41.3924C 67.355 39.9944 67.144 39.2914 66.906 38.7484C 66.808 38.5254 66.914 38.2644 67.137 38.1664C 67.359 38.0684 67.621 38.1704 67.719 38.3964C 67.789 38.5574 67.844 38.7244 67.898 38.9004C 68.012 38.3074 67.926 37.8224 67.726 37.5884C 67.625 37.4674 67.422 37.5494 67.285 37.6154C 66.465 38.0374 66.363 38.9474 66.363 38.9434C 66.355 38.9904 66.387 39.1824 66.387 39.1824C 66.89 39.7014 66.734 40.1394 66.64 40.3534M 65.316 46.5024C 64.902 47.1624 65.082 48.4674 65.223 48.8424C 64.969 48.3654 64.508 47.5804 64.672 46.8074C 64.742 46.4784 64.879 46.1704 65.066 45.8694C 64.043 45.4324 63.34 45.1074 63.012 44.1664C 62.754 43.4124 62.953 42.6894 62.844 42.1314C 62.824 41.8964 62.832 41.6314 62.875 41.5254C 62.98 41.2604 63.164 40.8854 63.273 41.0804C 63.734 42.2014 63.41 42.3464 63.597 43.5064C 63.765 44.5294 64.199 44.7604 65.308 45.2484C 65.375 45.2754 65.422 45.3104 65.48 45.3424C 65.539 45.2754 65.594 45.2134 65.656 45.1504C 66.105 44.7174 66.426 44.5374 66.687 43.7994C 66.906 43.1704 66.887 42.2754 67.117 41.5104C 67.316 40.8464 67.847 41.7284 67.652 42.5374C 67.469 43.3074 67.465 43.3654 67.254 44.0924C 67.027 44.8614 66.539 45.0844 65.957 45.6824C 65.957 45.6824 65.476 46.2524 65.32 46.5024L 65.316 46.5024zM 65.738 46.3304C 65.676 46.2834 66.113 45.8814 66.113 45.8814C 66.215 46.0254 66.301 46.1704 66.359 46.3264C 66.594 46.9474 66.473 47.7754 65.973 48.7174C 65.973 48.7174 66.254 47.3614 65.945 46.6544C 65.918 46.5924 65.875 46.5254 65.824 46.4594C 65.824 46.4594 65.82 46.3924 65.738 46.3304"
       id="path110" />
    <path
       style="stroke:none; fill-rule:evenodd; fill:#0018d1"
       d="M 68.234 37.1354C 68.258 37.1584 68.277 37.1854 68.301 37.2134C 68.285 37.1194 68.281 37.0174 68.262 36.9244C 68.199 36.6154 67.957 36.2954 67.578 36.0334C 67.398 36.1624 67.156 36.1854 66.937 36.1854C 67.09 36.3924 67.176 36.6784 67.226 36.9474C 67.726 36.7994 68.09 37.0064 68.234 37.1354"
       id="path112" />
    <path
       style="stroke:none; fill-rule:evenodd; fill:#0018d1"
       d="M 65.164 40.6424C 65.164 40.5414 65.133 40.4514 65.082 40.3964C 65.191 40.3424 65.293 40.2834 65.371 40.2134C 65.414 40.1744 65.422 40.1074 65.387 40.0604C 65.351 40.0144 65.293 40.0104 65.25 40.0454C 64.961 40.3074 64.265 40.4354 64.258 40.4394C 64.207 40.4474 64.172 40.5024 64.18 40.5604C 64.187 40.6194 64.238 40.6584 64.293 40.6504C 64.308 40.6464 64.543 40.6004 64.805 40.5104C 64.793 40.5494 64.785 40.5964 64.785 40.6424C 64.785 40.8104 64.871 40.9434 64.973 40.9434C 65.078 40.9434 65.164 40.8104 65.164 40.6424"
       id="path114" />
    <path
       style="stroke:none; fill-rule:evenodd; fill:#0018d1"
       d="M 66.64 40.3534C 66.207 40.2484 65.789 40.0454 65.785 40.0454C 65.734 40.0214 65.68 40.0454 65.656 40.1004C 65.637 40.1504 65.656 40.2174 65.707 40.2404C 65.715 40.2444 65.816 40.2954 65.969 40.3534C 65.902 40.3924 65.851 40.4904 65.851 40.6154C 65.851 40.7674 65.93 40.8924 66.023 40.8924C 66.117 40.8924 66.191 40.7674 66.191 40.6154C 66.191 40.5414 66.176 40.4744 66.144 40.4244C 66.277 40.4714 66.43 40.5174 66.582 40.5574"
       id="path116" />
    <path
       style="stroke:none; fill-rule:evenodd; fill:#0018d1"
       d="M 65.601 41.9084C 65.359 41.8964 65.07 41.9474 65.035 43.3144C 65.035 43.3144 65.527 43.2214 65.781 43.2874C 65.781 43.2874 65.816 42.7174 65.879 42.4434C 65.914 42.2834 65.902 41.9244 65.601 41.9084"
       id="path118" />
    <path
       style="stroke:none; fill-rule:evenodd; fill:#0018d1"
       d="M 65.527 41.3424C 65.461 41.3264 65.48 41.3184 65.398 41.3104C 65.289 41.3034 65.187 41.4124 65.277 41.5144C 65.34 41.5844 65.363 41.4044 65.488 41.5144C 65.535 41.5534 65.617 41.5764 65.687 41.5254C 65.762 41.4744 65.847 41.4864 65.898 41.5174C 65.969 41.5644 66.062 41.3614 65.902 41.3144C 65.824 41.2914 65.742 41.2954 65.672 41.3384C 65.582 41.3964 65.605 41.3614 65.527 41.3464"
       id="path120" />
    <path
       style="stroke:none; fill-rule:evenodd; fill:#0018d1"
       d="M 47.863 54.1974C 47.871 54.1974 47.875 54.2014 47.883 54.2054L 47.902 54.2054C 47.89 54.2054 47.875 54.2014 47.863 54.1974"
       id="path122" />
    <path
       style="stroke:none; fill-rule:evenodd; fill:#0018d1"
       d="M 39.82 54.2054L 39.844 54.2054C 39.851 54.2014 39.855 54.1974 39.863 54.1974C 39.847 54.2014 39.836 54.2054 39.82 54.2054"
       id="path124" />
    <path
       style="stroke:none; fill-rule:evenodd; fill:#0018d1"
       d="M 82.105 60.3034L 67.347 60.3034L 67.347 58.1744L 53.816 58.1744L 53.816 60.3034L 39.097 60.3034C 43.246 66.9354 49.48 71.5964 56.621 72.8734C 57.734 73.6784 59.101 74.1584 60.582 74.1584C 62.051 74.1584 63.414 73.6854 64.523 72.8854C 71.691 71.6194 77.945 66.9554 82.105 60.3034zM 54.066 67.3894L 54.066 58.4244L 67.097 58.4244L 67.097 67.3894C 67.097 70.9824 64.176 73.9044 60.582 73.9044C 56.988 73.9044 54.066 70.9824 54.066 67.3894"
       id="path126" />
    <path
       style="stroke:none; fill-rule:evenodd; fill:#0018d1"
       d="M 65.527 68.9864C 65.387 68.9594 65.258 68.9434 65.137 68.9324C 65.144 68.9204 65.152 68.9044 65.164 68.8924C 65.344 68.6034 65.551 68.2754 65.637 67.7604C 65.789 66.8694 65.398 66.1934 64.648 66.0454C 63.93 65.8964 63.367 66.3464 63.113 66.8184L 60.898 63.9714L 62.187 62.3184L 62.187 62.3184L 64.387 64.0294L 64.812 63.4824L 63.715 62.6274L 64.14 62.0764L 65.242 62.9324L 66.097 61.8304L 65.547 61.4044L 65.117 61.9554L 64.566 61.5254L 64.996 60.9744L 64.445 60.5494L 63.59 61.6464L 63.043 61.2214L 63.043 61.2214L 63.894 60.1194L 63.41 59.7444L 60.512 63.4744L 57.609 59.7444L 57.125 60.1194L 57.98 61.2214L 57.98 61.2214L 57.43 61.6464L 56.574 60.5494L 56.023 60.9744L 56.453 61.5254L 55.902 61.9554L 55.473 61.4044L 54.926 61.8304L 55.777 62.9324L 56.879 62.0764L 57.308 62.6274L 56.207 63.4824L 56.637 64.0294L 58.836 62.3184L 58.836 62.3184L 60.121 63.9714L 57.906 66.8184C 57.652 66.3464 57.094 65.8964 56.375 66.0454C 55.621 66.1934 55.234 66.8694 55.387 67.7604C 55.473 68.2754 55.68 68.6034 55.859 68.8924C 55.867 68.9044 55.875 68.9204 55.887 68.9324C 55.765 68.9434 55.633 68.9594 55.496 68.9864C 55.328 69.0214 55.219 69.1824 55.254 69.3504C 55.285 69.5144 55.449 69.6234 55.613 69.5924C 55.84 69.5454 56.023 69.5334 56.187 69.5414C 56.238 69.7014 56.273 69.8814 56.285 70.1074C 56.293 70.2794 56.437 70.4084 56.609 70.4004C 56.777 70.3894 56.906 70.2444 56.898 70.0764C 56.89 69.9324 56.875 69.8034 56.851 69.6824C 56.867 69.6854 56.883 69.6934 56.898 69.6974C 57.223 69.7994 57.59 69.9164 58.113 69.8694C 59.015 69.7954 59.57 69.2524 59.527 68.4824C 59.488 67.7524 58.859 67.2994 58.394 67.1934L 60.512 64.4714L 62.629 67.1934C 62.164 67.2994 61.531 67.7524 61.496 68.4824C 61.453 69.2524 62.008 69.7954 62.91 69.8694C 63.43 69.9164 63.801 69.7994 64.125 69.6974C 64.14 69.6894 64.152 69.6854 64.172 69.6824C 64.148 69.8034 64.133 69.9324 64.125 70.0764C 64.117 70.2444 64.246 70.3894 64.414 70.4004C 64.586 70.4084 64.73 70.2794 64.738 70.1074C 64.754 69.8814 64.785 69.7014 64.836 69.5414C 65 69.5334 65.183 69.5454 65.406 69.5924C 65.574 69.6234 65.738 69.5144 65.769 69.3504C 65.805 69.1824 65.695 69.0214 65.527 68.9864zM 58.914 68.5174C 58.945 69.1194 58.328 69.2364 58.058 69.2604C 57.66 69.2914 57.394 69.2094 57.086 69.1074C 56.941 69.0644 56.746 69.0724 56.578 69.0334C 56.5 68.8814 56.461 68.6894 56.379 68.5644C 56.207 68.2874 56.058 68.0534 55.992 67.6544C 55.945 67.3924 55.906 66.7644 56.496 66.6424C 57.219 66.4984 57.617 67.3924 57.633 67.4324C 57.687 67.5254 57.785 67.6004 57.871 67.6114C 57.953 67.6234 58.875 67.7794 58.914 68.5174zM 65.027 67.6584C 64.961 68.0534 64.812 68.2914 64.64 68.5644C 64.562 68.6934 64.519 68.8814 64.441 69.0374C 64.273 69.0724 64.082 69.0644 63.937 69.1114C 63.629 69.2094 63.363 69.2914 62.961 69.2604C 62.691 69.2364 62.074 69.1194 62.105 68.5174C 62.148 67.7834 63.07 67.6234 63.152 67.6114C 63.238 67.6034 63.332 67.5254 63.387 67.4324C 63.402 67.3924 63.801 66.4984 64.523 66.6464C 65.113 66.7644 65.074 67.3924 65.027 67.6584"
       id="path128" />
    <path
       style="stroke:none; fill-rule:evenodd; fill:#0018d1"
       d="M 56.422 77.4004C 56.379 77.6704 56.367 77.6744 56.039 77.6194C 55.621 77.5494 55.347 77.2324 55.426 76.7754C 55.551 76.0454 56.058 76.0174 56.269 76.0534C 56.379 76.0684 56.543 76.1314 56.629 76.1934L 56.422 77.4004zM 56.672 75.9244L 56.281 75.7364C 56.156 75.7174 56.062 75.6974 55.926 75.6934C 55.254 75.6784 54.664 75.9434 54.555 76.6034C 54.437 77.2914 54.926 77.7134 55.707 77.8464L 57.652 78.1784L 57.691 77.9554C 57.238 77.8464 57.199 77.8074 57.297 77.2244L 57.597 75.4394C 57.695 74.8654 57.75 74.8344 58.246 74.8854L 58.281 74.6624L 56.328 74.3344L 56.289 74.5534C 56.836 74.6784 56.879 74.7244 56.777 75.3034L 56.676 75.9244"
       id="path130" />
    <path
       style="stroke:none; fill-rule:evenodd; fill:#0018d1"
       d="M 51.664 76.2604C 51.59 76.4674 51.57 76.4714 51.262 76.3574C 50.887 76.2214 50.637 75.8814 50.812 75.4004C 50.906 75.1394 51.082 74.9434 51.34 74.8924C 51.504 74.8614 51.699 74.9084 51.867 74.9674L 52.105 75.0574L 51.664 76.2604zM 52.195 74.8144L 52.074 74.7714C 51.847 74.6894 51.801 74.6394 51.765 74.4474C 51.719 74.1894 51.656 73.7524 51.562 73.4434C 51.461 73.1004 51.328 72.8384 50.66 72.5844L 50.359 72.4744L 50.265 72.6624C 50.379 72.7524 50.488 72.8894 50.562 73.0174C 50.625 73.1314 50.707 73.3424 50.793 73.6704C 50.867 73.9554 50.976 74.4044 51.008 74.5964C 50.547 74.5764 50.129 74.7404 49.965 75.1824C 49.844 75.5144 49.918 75.8224 50.082 76.0254C 50.254 76.2324 50.523 76.3854 50.867 76.5104L 52.746 77.2014L 52.82 76.9904C 52.383 76.7954 52.347 76.7484 52.551 76.1894L 53.176 74.4944C 53.375 73.9434 53.433 73.9244 53.918 74.0684L 53.996 73.8574L 52.207 73.2014L 52.133 73.4124C 52.586 73.6114 52.617 73.6664 52.418 74.2174L 52.195 74.8144"
       id="path132" />
    <path
       style="stroke:none; fill-rule:evenodd; fill:#0018d1"
       d="M 47.027 73.6114L 47.008 73.6004L 47.203 72.3964L 47.976 72.8504L 47.027 73.6114zM 47.918 71.1354L 46.355 70.2174L 46.238 70.4084C 46.512 70.6074 46.644 70.7014 46.578 71.1744L 46.121 74.3304L 46.41 74.4284L 48.851 72.6274C 49.312 72.2834 49.445 72.3424 49.758 72.4784L 49.871 72.2874L 48.621 71.5534L 48.508 71.7444L 48.66 71.8504C 48.84 71.9864 48.847 72.0644 48.664 72.2364C 48.484 72.3964 48.277 72.5724 48.207 72.6354L 47.262 72.0804L 47.34 71.5684C 47.398 71.2014 47.461 71.1744 47.664 71.2674L 47.805 71.3304L 47.918 71.1394"
       id="path134" />
    <path
       style="stroke:none; fill-rule:evenodd; fill:#0018d1"
       d="M 43.566 71.4244C 43.187 71.8814 43.195 71.9354 43.555 72.2674L 43.414 72.4394L 41.172 70.5844C 41.262 70.4594 41.48 70.1544 41.719 69.8224L 41.906 69.9594C 41.762 70.2214 41.715 70.3774 41.726 70.5024C 41.734 70.6034 41.828 70.7644 42.125 71.0104L 42.359 71.2054C 42.531 71.3464 42.539 71.3534 42.664 71.1974L 43.347 70.3734L 42.941 70.0374C 42.586 69.7404 42.551 69.7564 42.242 70.0294L 42.062 69.8814L 42.824 68.9634L 43.004 69.1114C 42.793 69.4674 42.789 69.4944 43.144 69.7914L 43.555 70.1274L 44.058 69.5174C 44.258 69.2754 44.344 69.1114 44.293 68.9944C 44.242 68.8814 44.125 68.7604 43.906 68.5844C 43.691 68.4044 43.476 68.2644 43.281 68.2834C 43.144 68.3034 42.949 68.3814 42.726 68.5254L 42.555 68.3574C 42.719 68.2214 43.199 67.8304 43.336 67.7444L 45.73 69.7284L 45.586 69.9004C 45.148 69.5804 45.09 69.5844 44.715 70.0414L 43.566 71.4284"
       id="path136" />
    <path
       style="stroke:none; fill-rule:evenodd; fill:#0018d1"
       d="M 41.375 67.4474C 41.59 67.0924 41.738 66.3894 41.379 65.9944C 41.14 65.7324 40.805 65.6854 40.574 65.8964C 40.34 66.1114 40.285 66.4204 40.441 66.8304L 40.527 67.0454C 40.707 67.5104 40.84 68.0604 40.437 68.4284C 39.957 68.8694 39.265 68.8304 38.644 68.1504C 38.414 67.8964 38.265 67.5454 38.191 67.4164C 38.328 67.2444 38.515 67.0334 38.769 66.7214L 38.961 66.8854C 38.719 67.2794 38.648 67.7244 38.933 68.0374C 39.148 68.2754 39.476 68.2914 39.695 68.0884C 39.914 67.8894 39.887 67.6004 39.758 67.2954L 39.676 67.1004C 39.441 66.5454 39.332 65.9744 39.797 65.5334C 40.316 65.0604 41.058 65.2174 41.644 65.8614C 42.008 66.2564 42.109 66.6624 42.137 66.8224C 42.078 66.9394 41.789 67.3104 41.555 67.6234L 41.379 67.4514"
       id="path138" />
    <path
       style="stroke:none; fill-rule:evenodd; fill:#0018d1"
       d="M 38.39 63.3924C 38.859 63.0494 38.863 62.9864 38.597 62.5684L 38.777 62.4354L 39.918 63.9864L 39.738 64.1194C 39.418 63.7404 39.359 63.7244 38.887 64.0684L 37.43 65.1394C 36.953 65.4904 36.957 65.5494 37.223 65.9674L 37.043 66.1004L 35.902 64.5454L 36.082 64.4164C 36.402 64.7954 36.457 64.8144 36.933 64.4634L 38.39 63.3924"
       id="path140" />
    <path
       style="stroke:none; fill-rule:evenodd; fill:#0018d1"
       d="M 34.785 61.6424C 34.652 61.7174 34.562 61.7524 34.519 61.7404C 34.473 61.7244 34.414 61.6504 34.289 61.4284C 33.879 60.6934 34.043 60.0454 34.937 59.5494C 35.746 59.0964 36.48 59.1974 36.902 59.9554C 37.09 60.2914 37.008 60.4084 36.609 60.6314L 34.785 61.6464L 34.785 61.6424zM 34.914 63.1234L 35.109 63.0144C 34.91 62.5924 34.914 62.5334 35.433 62.2444L 37.012 61.3654C 37.523 61.0844 37.582 61.1034 37.859 61.5374L 38.055 61.4284L 37.219 59.9244C 36.586 58.7954 35.562 58.1354 34.375 58.7994C 33.969 59.0254 33.683 59.4004 33.605 59.7834C 33.492 60.3074 33.664 60.8774 33.988 61.4594L 34.914 63.1234"
       id="path142" />
    <path
       style="stroke:none; fill-rule:evenodd; fill:#0018d1"
       d="M 34.25 55.7644C 34.789 55.5414 34.808 55.4824 34.648 55.0144L 34.855 54.9284L 35.586 56.7134L 35.379 56.7954C 35.16 56.3504 35.105 56.3184 34.566 56.5414L 32.894 57.2284C 32.344 57.4514 32.336 57.5104 32.492 57.9784L 32.285 58.0644L 31.555 56.2794L 31.762 56.1934C 31.976 56.6424 32.027 56.6744 32.574 56.4474L 34.246 55.7644"
       id="path144" />
    <path
       style="stroke:none; fill-rule:evenodd; fill:#0018d1"
       d="M 30.496 53.0964L 30.711 53.0334C 30.879 53.4944 30.93 53.5294 31.5 53.3654L 32.469 53.0884C 33.305 52.8464 33.726 52.4084 33.551 51.7914C 33.359 51.1234 32.723 51.0254 31.906 51.2604L 31.562 51.3574C 31.047 51.5064 30.785 51.6154 30.625 51.6934C 30.449 51.7754 30.422 51.9674 30.508 52.3264L 30.293 52.3894L 29.859 50.8894L 30.074 50.8264C 30.168 51.1154 30.297 51.2564 30.492 51.2324C 30.668 51.2134 30.945 51.1664 31.461 51.0174L 31.871 50.9004C 32.406 50.7484 32.883 50.7244 33.262 50.9324C 33.578 51.1074 33.836 51.4594 33.973 51.9354C 34.082 52.3104 34.125 52.7244 33.984 53.0724C 33.847 53.4124 33.504 53.6584 32.89 53.8384L 31.726 54.1704C 31.16 54.3344 31.133 54.3854 31.242 54.8854L 31.027 54.9474L 30.496 53.0964"
       id="path146" />
    <path
       style="stroke:none; fill-rule:evenodd; fill:#0018d1"
       d="M 28.851 44.3894L 29.074 44.3574C 29.18 44.9084 29.211 44.9354 29.746 44.8504L 31.644 44.5454C 32.18 44.4594 32.203 44.4394 32.16 43.8814L 32.383 43.8504L 32.644 45.8074L 32.422 45.8384C 32.316 45.2954 32.289 45.2674 31.75 45.3464L 29.644 45.6624L 29.648 45.6854L 32.683 46.5964L 32.711 46.7994L 30.203 48.3304L 30.207 48.3464L 31.402 48.2324C 32.078 48.1704 32.246 48.1394 32.41 48.1004C 32.613 48.0574 32.672 47.8924 32.644 47.5024L 32.867 47.4744L 33.066 48.9634L 32.844 48.9944C 32.785 48.6704 32.683 48.5724 32.469 48.5534C 32.297 48.5334 32.097 48.5454 31.555 48.5764L 30.371 48.6544C 29.695 48.6974 29.695 48.7444 29.738 49.2994L 29.515 49.3264L 29.34 48.0024L 31.527 46.5804L 29.051 45.8384L 28.855 44.3894"
       id="path148" />
    <path
       style="stroke:none; fill-rule:evenodd; fill:#0018d1"
       d="M 30.406 41.0214C 30.902 41.0104 31.308 41.3964 31.316 41.8734C 31.328 42.3534 30.933 42.7644 30.437 42.7714C 29.949 42.7794 29.535 42.3894 29.527 41.9084C 29.515 41.4284 29.918 41.0294 30.406 41.0214"
       id="path150" />
    <path
       style="stroke:none; fill-rule:evenodd; fill:#0018d1"
       d="M 29.89 38.0414L 29.894 38.0174L 31.058 37.6664L 30.992 38.5574L 29.89 38.0414zM 32.504 37.7524L 32.644 35.9394L 32.422 35.9244C 32.363 36.2564 32.336 36.4124 31.883 36.5644L 28.847 37.5414L 28.887 37.8424L 31.582 39.2444C 32.09 39.5064 32.094 39.6504 32.109 39.9904L 32.332 40.0064L 32.441 38.5644L 32.219 38.5454L 32.187 38.7284C 32.148 38.9474 32.082 38.9904 31.847 38.9044C 31.621 38.8144 31.371 38.7054 31.289 38.6664L 31.371 37.5724L 31.863 37.4204C 32.219 37.3104 32.269 37.3534 32.277 37.5804L 32.281 37.7324L 32.504 37.7484"
       id="path152" />
    <path
       style="stroke:none; fill-rule:evenodd; fill:#0018d1"
       d="M 30.847 31.8734C 30.129 31.9284 29.875 32.2994 29.789 32.7604C 29.64 33.5724 30.187 34.1274 31.055 34.2874C 32.058 34.4714 32.789 34.0454 32.926 33.3074C 33.019 32.7834 32.762 32.4204 32.211 32.0104L 32.269 31.7834C 32.597 31.9354 33.058 32.1424 33.238 32.2644C 33.246 32.4354 33.277 32.9714 33.187 33.4674C 32.922 34.9244 31.922 35.4044 31.008 35.2364C 29.875 35.0294 29.277 33.9434 29.512 32.6704C 29.613 32.1034 29.816 31.7244 29.879 31.5644C 30.18 31.5964 30.461 31.6234 30.863 31.6394L 30.847 31.8734"
       id="path154" />
    <path
       style="stroke:none; fill-rule:evenodd; fill:#0018d1"
       d="M 31.515 29.0644L 31.519 29.0414L 32.734 28.9514L 32.476 29.8074L 31.515 29.0644zM 34.129 29.3504L 34.656 27.6154L 34.441 27.5494C 34.312 27.8614 34.254 28.0104 33.777 28.0574L 30.601 28.3504L 30.578 28.6504L 32.898 30.6074C 33.34 30.9744 33.312 31.1194 33.254 31.4514L 33.465 31.5174L 33.89 30.1314L 33.676 30.0684L 33.605 30.2364C 33.519 30.4434 33.441 30.4744 33.234 30.3344C 33.031 30.1974 32.812 30.0374 32.738 29.9824L 33.058 28.9354L 33.574 28.8894C 33.941 28.8614 33.984 28.9164 33.941 29.1354L 33.914 29.2874L 34.129 29.3504"
       id="path156" />
    <path
       style="stroke:none; fill-rule:evenodd; fill:#0018d1"
       d="M 32.75 24.5374C 32.613 24.4744 32.531 24.4204 32.515 24.3774C 32.5 24.3384 32.523 24.2404 32.629 24.0104C 32.973 23.2404 33.59 22.9864 34.523 23.4044C 35.371 23.7874 35.726 24.4394 35.371 25.2284C 35.211 25.5764 35.07 25.5844 34.652 25.3964L 32.75 24.5374zM 31.64 25.5174L 31.847 25.6114C 32.066 25.2014 32.113 25.1704 32.656 25.4164L 34.305 26.1584C 34.836 26.3964 34.851 26.4594 34.672 26.9354L 34.875 27.0294L 35.582 25.4634C 36.113 24.2794 36.031 23.0644 34.789 22.5064C 34.367 22.3144 33.894 22.3144 33.539 22.4784C 33.055 22.6974 32.695 23.1784 32.426 23.7834L 31.644 25.5174"
       id="path158" />
    <path
       style="stroke:none; fill-rule:evenodd; fill:#0018d1"
       d="M 34.863 20.8774C 34.359 20.5724 34.305 20.5844 34.031 20.9904L 33.84 20.8734L 35.347 18.3814C 35.48 18.4554 35.812 18.6274 36.18 18.8104L 36.074 19.0174C 35.793 18.9164 35.629 18.8894 35.508 18.9204C 35.41 18.9434 35.262 19.0604 35.066 19.3894L 34.906 19.6504C 34.793 19.8424 34.789 19.8464 34.961 19.9514L 35.875 20.5064L 36.148 20.0534C 36.39 19.6584 36.371 19.6274 36.055 19.3614L 36.176 19.1624L 37.195 19.7794L 37.074 19.9784C 36.691 19.8224 36.664 19.8224 36.422 20.2214L 36.148 20.6744L 36.828 21.0844C 37.094 21.2444 37.273 21.3074 37.379 21.2364C 37.484 21.1704 37.586 21.0334 37.73 20.7954C 37.875 20.5574 37.98 20.3184 37.933 20.1354C 37.894 19.9984 37.789 19.8184 37.609 19.6194L 37.754 19.4284C 37.914 19.5684 38.371 19.9864 38.476 20.1034L 36.863 22.7674L 36.672 22.6504C 36.926 22.1704 36.914 22.1154 36.406 21.8074L 34.867 20.8774"
       id="path160" />
    <path
       style="stroke:none; fill-rule:evenodd; fill:#0018d1"
       d="M 39.461 13.1154L 39.633 13.2604C 39.301 13.7094 39.297 13.7524 39.726 14.0884L 41.23 15.2794C 41.656 15.6154 41.687 15.6194 42.07 15.2134L 42.242 15.3534L 40.976 16.8734L 40.805 16.7284C 41.133 16.2834 41.137 16.2444 40.715 15.9004L 39.058 14.5604L 39.043 14.5804L 40.426 17.4324L 40.293 17.5924L 37.469 16.7754L 37.461 16.7914L 38.351 17.5964C 38.855 18.0494 38.992 18.1504 39.129 18.2484C 39.301 18.3654 39.461 18.3034 39.726 18.0174L 39.898 18.1584L 38.937 19.3144L 38.765 19.1704C 38.961 18.9084 38.965 18.7674 38.836 18.5964C 38.734 18.4594 38.59 18.3184 38.199 17.9394L 37.34 17.1194C 36.855 16.6504 36.82 16.6824 36.441 17.0844L 36.269 16.9434L 37.125 15.9164L 39.652 16.5684L 38.523 14.2404L 39.461 13.1154"
       id="path162" />
    <path
       style="stroke:none; fill-rule:evenodd; fill:#0018d1"
       d="M 43.281 13.3074C 43.672 13.7364 43.734 13.7364 44.125 13.4284L 44.273 13.5924L 42.844 14.8854L 42.691 14.7214C 43.039 14.3654 43.047 14.3034 42.656 13.8694L 41.445 12.5294C 41.047 12.0884 40.992 12.0964 40.601 12.4044L 40.453 12.2404L 41.883 10.9474L 42.031 11.1114C 41.687 11.4714 41.672 11.5254 42.066 11.9674L 43.281 13.3074"
       id="path164" />
    <path
       style="stroke:none; fill-rule:evenodd; fill:#0018d1"
       d="M 44.699 10.0144L 44.723 10.0024L 45.73 10.6824L 44.996 11.1934L 44.699 10.0144zM 46.578 11.8574L 48.066 10.8184L 47.941 10.6354C 47.644 10.8034 47.504 10.8814 47.101 10.6234L 44.426 8.8894L 44.219 9.11142L 44.836 12.0844C 44.953 12.6424 44.844 12.7404 44.59 12.9674L 44.719 13.1504L 45.906 12.3224L 45.777 12.1394L 45.621 12.2284C 45.422 12.3384 45.344 12.3144 45.265 12.0764C 45.195 11.8464 45.121 11.5844 45.097 11.4944L 45.996 10.8654L 46.43 11.1504C 46.734 11.3574 46.734 11.4244 46.566 11.5724L 46.449 11.6744L 46.578 11.8574"
       id="path166" />
    <path
       style="stroke:none; fill-rule:evenodd; fill:#0018d1"
       d="M 49.258 8.04141C 49.484 8.48242 49.32 9.01743 48.894 9.23642C 48.469 9.45941 47.93 9.28741 47.703 8.84641C 47.476 8.41241 47.644 7.86542 48.07 7.64642C 48.5 7.42841 49.035 7.60742 49.258 8.04141"
       id="path168" />
    <path
       style="stroke:none; fill-rule:evenodd; fill:#0018d1"
       d="M 51.359 9.21341L 51.285 9.00241C 51.789 8.79541 51.816 8.74442 51.625 8.1824L 51.039 6.48242C 50.847 5.92041 50.793 5.90442 50.312 6.03741L 50.238 5.82642L 52.101 5.18542L 52.172 5.39642C 51.676 5.60342 51.64 5.64642 51.836 6.20941L 52.414 7.89642C 52.515 8.18942 52.605 8.33841 52.734 8.36142C 52.859 8.38541 53 8.35342 53.215 8.27942C 53.508 8.17841 53.683 8.07642 53.75 7.92041C 53.805 7.79141 53.844 7.58041 53.844 7.22842L 54.078 7.17441C 54.121 7.45142 54.195 8.0144 54.219 8.23242L 51.359 9.21341"
       id="path170" />
    <path
       style="stroke:none; fill-rule:evenodd; fill:#0018d1"
       d="M 55.949 4.24442L 55.988 4.46341C 55.512 4.57642 55.469 4.62341 55.566 5.20941L 55.734 6.20142C 55.879 7.06042 56.265 7.53342 56.894 7.42841C 57.582 7.31042 57.754 6.68942 57.613 5.85342L 57.555 5.50241C 57.469 4.97141 57.39 4.70142 57.328 4.53342C 57.265 4.3504 57.078 4.29941 56.715 4.34241L 56.676 4.12341L 58.215 3.86542L 58.254 4.08841C 57.953 4.14243 57.801 4.26041 57.801 4.45142C 57.801 4.63141 57.812 4.91241 57.902 5.44342L 57.973 5.86142C 58.062 6.41241 58.031 6.8894 57.781 7.24042C 57.57 7.53342 57.191 7.75241 56.703 7.83441C 56.316 7.89642 55.902 7.89243 55.57 7.71341C 55.25 7.54141 55.043 7.17041 54.937 6.53741L 54.738 5.34641C 54.64 4.76041 54.594 4.72842 54.086 4.77942L 54.047 4.56042L 55.949 4.24042"
       id="path172" />
    <path
       style="stroke:none; fill-rule:evenodd; fill:#0018d1"
       d="M 62.574 4.97842C 62.43 4.24841 61.945 4.06042 61.465 4.05341C 60.793 4.03741 60.219 4.50641 60.195 5.55341C 60.18 6.38541 60.57 7.21741 61.519 7.23642C 61.687 7.24042 61.93 7.20541 61.933 6.89243L 61.945 6.4324C 61.953 6.06042 61.93 6.02142 61.281 5.96741L 61.289 5.74442L 63.14 5.78342L 63.137 6.00641C 62.832 6.04141 62.793 6.0574 62.785 6.44742L 62.777 6.83041C 62.773 7.02942 62.785 7.20941 62.812 7.32642C 62.422 7.41641 61.945 7.53342 61.457 7.52542C 60.113 7.49841 59.226 6.74042 59.25 5.6394C 59.273 4.38141 60.367 3.74042 61.582 3.7644C 62.101 3.77542 62.539 3.90442 62.738 3.95941C 62.758 4.14243 62.777 4.46341 62.812 4.96741L 62.574 4.97842"
       id="path174" />
    <path
       style="stroke:none; fill-rule:evenodd; fill:#0018d1"
       d="M 65.851 4.96341C 65.887 4.81442 65.922 4.72443 65.961 4.69742C 66 4.67441 66.097 4.6824 66.347 4.73642C 67.168 4.92041 67.543 5.47141 67.32 6.47141C 67.117 7.37741 66.551 7.85742 65.711 7.67041C 65.336 7.58441 65.301 7.44742 65.398 7.00241L 65.851 4.96341zM 64.664 4.07242L 64.617 4.29541C 65.062 4.42441 65.101 4.46741 64.973 5.04541L 64.578 6.81042C 64.453 7.38141 64.398 7.40842 63.89 7.32642L 63.844 7.54541L 65.519 7.92041C 66.785 8.20142 67.957 7.87341 68.254 6.54541C 68.355 6.09241 68.262 5.63141 68.027 5.31442C 67.715 4.88541 67.172 4.63541 66.523 4.49042L 64.668 4.07642"
       id="path176" />
    <path
       style="stroke:none; fill-rule:evenodd; fill:#0018d1"
       d="M 71.488 6.07642L 71.398 6.28342C 70.937 6.11942 70.879 6.1394 70.644 6.6824L 70.246 7.60742C 69.902 8.40842 69.973 9.0144 70.562 9.2644C 71.199 9.54141 71.68 9.11142 72.015 8.33041L 72.156 8.00241C 72.371 7.51041 72.449 7.23642 72.492 7.06442C 72.539 6.87341 72.406 6.73242 72.074 6.57242L 72.164 6.36542L 73.597 6.98242L 73.508 7.18542C 73.226 7.07242 73.039 7.08841 72.933 7.25241C 72.832 7.40042 72.691 7.64642 72.48 8.1394L 72.316 8.52542C 72.094 9.04141 71.808 9.42441 71.406 9.58441C 71.07 9.71741 70.637 9.69342 70.18 9.50241C 69.82 9.34641 69.473 9.11942 69.293 8.78741C 69.117 8.46741 69.144 8.04541 69.394 7.45541L 69.875 6.34641C 70.105 5.80341 70.086 5.75241 69.629 5.51743L 69.715 5.31442L 71.488 6.07242"
       id="path178" />
    <path
       style="stroke:none; fill-rule:evenodd; fill:#0018d1"
       d="M 75.695 12.6034L 75.375 12.3894L 74.887 8.87741L 74.879 8.87341L 74.289 9.7644C 73.969 10.2444 73.832 10.4904 73.762 10.6424C 73.676 10.8184 73.769 10.9864 74.097 11.2244L 73.973 11.4084L 72.652 10.5334L 72.777 10.3464C 73.062 10.5254 73.254 10.5374 73.387 10.3964C 73.5 10.2674 73.676 10.0494 73.996 9.56842L 74.551 8.72842C 74.906 8.19742 74.867 8.02542 74.43 7.69742L 74.555 7.51041L 75.586 8.19742L 76.07 11.3734L 76.086 11.3814L 76.547 10.6894C 76.863 10.2094 77 9.96341 77.074 9.80341C 77.156 9.62341 77.055 9.45941 76.73 9.22443L 76.851 9.04141L 78.18 9.92041L 78.055 10.1074C 77.769 9.92841 77.582 9.90842 77.449 10.0494C 77.332 10.1824 77.156 10.4004 76.84 10.8814L 75.695 12.6004"
       id="path180" />
    <path
       style="stroke:none; fill-rule:evenodd; fill:#0018d1"
       d="M 78.582 12.5104C 79.219 11.8264 79.93 11.7364 80.316 12.0964C 80.84 12.5884 80.543 13.4824 79.957 14.1074C 79.23 14.8814 78.605 14.8574 78.23 14.5064C 77.742 14.0494 77.914 13.2214 78.582 12.5104zM 80.566 11.9354C 79.883 11.2954 78.676 11.0294 77.765 11.9984C 77.18 12.6194 77.023 13.7714 77.992 14.6784C 78.734 15.3734 79.898 15.5454 80.765 14.6234C 81.453 13.8894 81.449 12.7674 80.562 11.9354"
       id="path182" />
    <path
       style="stroke:none; fill-rule:evenodd; fill:#0018d1"
       d="M 82.832 16.9324C 82.449 17.2484 81.89 17.1974 81.586 16.8264C 81.281 16.4554 81.336 15.8924 81.719 15.5764C 82.094 15.2674 82.664 15.3184 82.969 15.6894C 83.273 16.0604 83.207 16.6194 82.832 16.9324"
       id="path184" />
    <path
       style="stroke:none; fill-rule:evenodd; fill:#0018d1"
       d="M 85.152 18.2284C 85.312 18.1194 85.336 18.1274 85.508 18.3854C 85.691 18.6664 85.734 19.0604 85.394 19.2874C 84.984 19.5574 84.664 19.3574 84.461 19.0494L 84.293 18.7994L 85.152 18.2284zM 82.871 18.7674C 82.387 19.0884 82.324 19.0724 82.019 18.6704L 81.832 18.7954L 82.832 20.3034C 83.234 20.9084 83.89 21.5684 84.59 21.1034C 85.058 20.7954 85.058 20.2484 84.816 19.7644L 84.832 19.7564C 85.058 19.9714 85.512 20.2364 85.906 19.9744C 86.39 19.6544 86.328 19.1194 85.933 18.5254L 84.828 16.8504L 84.64 16.9744C 84.875 17.3854 84.875 17.4434 84.387 17.7644L 82.871 18.7674zM 84.207 19.1584C 84.48 19.5724 84.539 20.0534 84.062 20.3654C 83.664 20.6314 83.281 20.4744 83.09 20.1854C 82.922 19.9324 82.883 19.7284 83.332 19.4324L 84.066 18.9474L 84.207 19.1584"
       id="path186" />
    <path
       style="stroke:none; fill-rule:evenodd; fill:#0018d1"
       d="M 87.14 22.5964L 87.148 22.6154L 86.328 23.5144L 85.93 22.7134L 87.14 22.5924L 87.14 22.5964zM 85.039 24.1784L 85.847 25.8074L 86.047 25.7094C 85.926 25.3924 85.871 25.2404 86.183 24.8814L 88.293 22.4864L 88.101 22.2524L 85.07 22.4244C 84.5 22.4594 84.422 22.3344 84.234 22.0534L 84.035 22.1504L 84.68 23.4474L 84.879 23.3504L 84.812 23.1784C 84.734 22.9674 84.769 22.8964 85.015 22.8534C 85.258 22.8144 85.523 22.7794 85.617 22.7674L 86.105 23.7524L 85.758 24.1354C 85.512 24.4124 85.441 24.4004 85.324 24.2094L 85.242 24.0804L 85.039 24.1824"
       id="path188" />
    <path
       style="stroke:none; fill-rule:evenodd; fill:#0018d1"
       d="M 87.414 27.5454C 86.867 27.7484 86.847 27.8074 87.012 28.3424L 86.801 28.4204L 86.094 26.5144L 86.305 26.4354C 86.519 26.9284 86.574 26.9594 87.121 26.7564L 89.379 25.9164L 89.316 25.7444C 89.148 25.3034 89.027 25.1784 88.906 25.1274C 88.805 25.0884 88.644 25.0724 88.336 25.1114L 88.258 24.9004C 88.68 24.7674 89.058 24.6704 89.324 24.5804L 89.371 24.7014C 89.289 24.8224 89.297 24.8894 89.363 25.0684L 90.226 27.4004C 90.297 27.5844 90.336 27.6004 90.465 27.6464L 90.508 27.7674C 90.246 27.8654 89.789 28.0764 89.508 28.2174L 89.41 28.0064C 89.695 27.8304 89.808 27.7214 89.859 27.6074C 89.922 27.4714 89.887 27.2794 89.777 26.9984L 89.672 26.7014L 87.414 27.5414"
       id="path190" />
    <path
       style="stroke:none; fill-rule:evenodd; fill:#0018d1"
       d="M 90.043 30.2644L 90.047 30.2874L 89.058 30.9984L 88.836 30.1314L 90.043 30.2644zM 87.664 31.3814L 88.117 33.1424L 88.332 33.0844C 88.281 32.7524 88.258 32.5924 88.637 32.3074L 91.191 30.3964L 91.058 30.1274L 88.055 29.6704C 87.488 29.5844 87.437 29.4474 87.316 29.1354L 87.097 29.1894L 87.461 30.5924L 87.676 30.5374L 87.648 30.3534C 87.613 30.1314 87.664 30.0684 87.914 30.0804C 88.156 30.0924 88.43 30.1114 88.519 30.1234L 88.797 31.1824L 88.379 31.4864C 88.078 31.7054 88.015 31.6824 87.933 31.4714L 87.883 31.3264L 87.664 31.3854"
       id="path192" />
    <path
       style="stroke:none; fill-rule:evenodd; fill:#0018d1"
       d="M 88.265 34.5844L 90.961 32.8814C 91.312 32.6544 91.351 32.5254 91.324 32.1584L 91.547 32.1234L 91.836 33.9394L 91.613 33.9784L 91.558 33.7834C 91.5 33.5644 91.41 33.5724 91.176 33.7214L 89.402 34.8384C 89.816 34.9434 91.101 35.1934 91.387 35.2524C 91.68 35.3104 91.773 35.2794 91.762 34.9984L 91.754 34.8464L 91.973 34.8104L 92.203 36.2644L 91.984 36.2994C 91.879 35.9044 91.762 35.8344 91.23 35.6504C 91.086 35.6004 89.492 35.1544 88.312 34.8814L 88.265 34.5844"
       id="path194" />
    <path
       style="stroke:none; fill-rule:evenodd; fill:#0018d1"
       d="M 91.316 37.8924L 91.316 37.9164L 90.215 38.4324L 90.152 37.5374L 91.316 37.8924zM 88.769 38.5534L 88.894 40.3654L 89.117 40.3504C 89.125 40.0144 89.129 39.8534 89.558 39.6394L 92.422 38.2364L 92.336 37.9434L 89.473 36.9434C 88.93 36.7564 88.902 36.6114 88.84 36.2794L 88.617 36.2954L 88.715 37.7404L 88.937 37.7244L 88.941 37.5414C 88.953 37.3184 89.012 37.2644 89.258 37.3224C 89.492 37.3774 89.754 37.4474 89.844 37.4744L 89.918 38.5684L 89.453 38.7914C 89.117 38.9514 89.058 38.9164 89.019 38.6934L 88.996 38.5414L 88.769 38.5574"
       id="path196" />
    <path
       style="stroke:none; fill-rule:evenodd; fill:#0018d1"
       d="M 90.777 42.8074C 90.281 42.7954 89.89 42.3964 89.898 41.9164C 89.906 41.4354 90.316 41.0454 90.812 41.0534C 91.301 41.0644 91.699 41.4714 91.691 41.9514C 91.68 42.4324 91.265 42.8144 90.777 42.8074"
       id="path198" />
    <path
       style="stroke:none; fill-rule:evenodd; fill:#0018d1"
       d="M 88.777 43.8774L 89 43.9004C 88.976 44.4474 89.012 44.4904 89.597 44.5534L 91.39 44.7444C 91.976 44.8074 92.015 44.7644 92.097 44.2754L 92.32 44.2994L 92.113 46.2564L 91.89 46.2324C 91.914 45.6934 91.887 45.6424 91.301 45.5804L 89.523 45.3894C 89.215 45.3574 89.043 45.3814 88.969 45.4824C 88.89 45.5884 88.859 45.7284 88.836 45.9514C 88.805 46.2644 88.82 46.4674 88.937 46.5924C 89.031 46.6974 89.203 46.8184 89.523 46.9674L 89.473 47.2054C 89.199 47.1274 88.664 46.9554 88.453 46.8854L 88.777 43.8814"
       id="path200" />
    <path
       style="stroke:none; fill-rule:evenodd; fill:#0018d1"
       d="M 88.762 49.9394C 88.187 49.8184 88.14 49.8574 88.004 50.3344L 87.785 50.2914L 88.187 48.4044L 88.406 48.4474C 88.332 48.9394 88.363 48.9984 88.933 49.1154L 90.703 49.4944C 91.281 49.6154 91.32 49.5764 91.457 49.0964L 91.676 49.1424L 91.277 51.0294L 91.058 50.9824C 91.129 50.4904 91.105 50.4354 90.527 50.3144L 88.758 49.9394"
       id="path202" />
    <path
       style="stroke:none; fill-rule:evenodd; fill:#0018d1"
       d="M 89.855 54.2484C 90.039 54.3074 90.047 54.3304 89.949 54.6234C 89.84 54.9434 89.555 55.2174 89.168 55.0884C 88.707 54.9324 88.664 54.5534 88.781 54.2054L 88.879 53.9164L 89.855 54.2484zM 88.031 52.7754C 87.476 52.5924 87.453 52.5334 87.586 52.0454L 87.375 51.9744L 86.793 53.6854C 86.562 54.3774 86.441 55.2994 87.238 55.5684C 87.769 55.7484 88.203 55.4124 88.437 54.9244L 88.449 54.9284C 88.422 55.2404 88.488 55.7604 88.937 55.9124C 89.492 56.1004 89.871 55.7214 90.101 55.0494L 90.742 53.1464L 90.531 53.0724C 90.347 53.5104 90.305 53.5454 89.75 53.3574L 88.031 52.7794L 88.031 52.7754zM 88.539 54.0724C 88.379 54.5414 88.039 54.8814 87.5 54.7014C 87.043 54.5454 86.933 54.1464 87.047 53.8184C 87.14 53.5334 87.277 53.3774 87.789 53.5494L 88.621 53.8304L 88.539 54.0724"
       id="path204" />
    <path
       style="stroke:none; fill-rule:evenodd; fill:#0018d1"
       d="M 87.738 58.5724C 88.265 58.8344 88.32 58.8184 88.558 58.3924L 88.762 58.4904L 87.457 61.0964C 87.316 61.0374 86.973 60.8894 86.59 60.7364L 86.68 60.5214C 86.969 60.6034 87.133 60.6154 87.254 60.5764C 87.347 60.5454 87.484 60.4164 87.656 60.0724L 87.793 59.7994C 87.894 59.6004 87.898 59.5924 87.719 59.5024L 86.758 59.0214L 86.523 59.4944C 86.316 59.9084 86.336 59.9354 86.672 60.1784L 86.57 60.3854L 85.504 59.8504L 85.605 59.6424C 86 59.7674 86.027 59.7674 86.238 59.3504L 86.473 58.8814L 85.765 58.5254C 85.484 58.3854 85.305 58.3384 85.203 58.4164C 85.101 58.4904 85.012 58.6314 84.887 58.8854C 84.762 59.1354 84.676 59.3774 84.738 59.5604C 84.789 59.6894 84.91 59.8574 85.101 60.0454L 84.973 60.2524C 84.805 60.1194 84.316 59.7404 84.199 59.6314L 85.594 56.8504L 85.793 56.9474C 85.578 57.4474 85.594 57.5024 86.125 57.7674L 87.734 58.5724"
       id="path206" />
    <path
       style="stroke:none; fill-rule:evenodd; fill:#0018d1"
       d="M 85.074 63.9784C 85.258 64.1074 85.254 64.1234 85.066 64.3924C 84.84 64.7214 84.445 64.8774 84.027 64.5844C 83.797 64.4204 83.656 64.2054 83.672 63.9434C 83.683 63.7754 83.777 63.6004 83.879 63.4554L 84.023 63.2444L 85.074 63.9784zM 83.816 63.0964L 83.742 63.2014C 83.605 63.3964 83.543 63.4324 83.351 63.4164C 83.09 63.3964 82.648 63.3464 82.328 63.3534C 81.969 63.3654 81.68 63.4284 81.265 64.0064L 81.082 64.2674L 81.238 64.4084C 81.355 64.3224 81.515 64.2524 81.66 64.2134C 81.785 64.1854 82.012 64.1544 82.351 64.1584C 82.644 64.1584 83.105 64.1704 83.297 64.1854C 83.164 64.6314 83.215 65.0764 83.601 65.3464C 83.89 65.5494 84.207 65.5574 84.445 65.4474C 84.691 65.3384 84.902 65.1154 85.113 64.8144L 86.262 63.1744L 86.078 63.0454C 85.777 63.4204 85.723 63.4394 85.238 63.1034L 83.754 62.0644C 83.277 61.7324 83.269 61.6704 83.535 61.2364L 83.351 61.1074L 82.258 62.6704L 82.441 62.7994C 82.754 62.4084 82.812 62.3924 83.293 62.7284L 83.816 63.0964"
       id="path208" />
    <path
       style="stroke:none; fill-rule:evenodd; fill:#0018d1"
       d="M 79.582 67.2674C 79.16 66.8654 79.097 66.8734 78.687 67.2564L 78.523 67.1004L 79.93 65.6314L 80.09 65.7874C 79.746 66.1974 79.738 66.2604 80.164 66.6624L 81.902 68.3264L 82.031 68.1934C 82.355 67.8504 82.414 67.6854 82.406 67.5574C 82.398 67.4474 82.344 67.2954 82.172 67.0334L 82.328 66.8734C 82.629 67.1934 82.887 67.4944 83.082 67.6934L 82.996 67.7834C 82.847 67.7674 82.793 67.8034 82.656 67.9394L 80.937 69.7404C 80.805 69.8774 80.808 69.9244 80.82 70.0604L 80.734 70.1504C 80.531 69.9594 80.137 69.6394 79.89 69.4474L 80.039 69.2674C 80.32 69.4474 80.469 69.5024 80.594 69.4984C 80.742 69.4944 80.898 69.3774 81.105 69.1584L 81.324 68.9324L 79.582 67.2674"
       id="path210" />
    <path
       style="stroke:none; fill-rule:evenodd; fill:#0018d1"
       d="M 77.781 71.1704L 77.762 71.1854L 76.719 70.5574L 77.426 70.0104L 77.781 71.1704zM 75.812 69.4284L 74.379 70.5414L 74.515 70.7174C 74.801 70.5374 74.937 70.4514 75.351 70.6854L 78.113 72.2794L 78.308 72.0494L 77.543 69.1114C 77.394 68.5574 77.5 68.4554 77.738 68.2174L 77.601 68.0414L 76.457 68.9284L 76.594 69.1034L 76.75 69.0064C 76.941 68.8894 77.019 68.9084 77.109 69.1424C 77.195 69.3694 77.281 69.6274 77.308 69.7174L 76.445 70.3894L 76 70.1274C 75.68 69.9354 75.676 69.8694 75.84 69.7134L 75.949 69.6034L 75.812 69.4284"
       id="path212" />
    <path
       style="stroke:none; fill-rule:evenodd; fill:#0018d1"
       d="M 72.207 72.7524C 71.933 72.2364 71.871 72.2244 71.363 72.4634L 71.258 72.2644L 73.051 71.3034L 73.152 71.5024C 72.695 71.7834 72.672 71.8424 72.949 72.3574L 74.086 74.4784L 74.246 74.3924C 74.664 74.1704 74.769 74.0294 74.801 73.9044C 74.828 73.7994 74.824 73.6394 74.742 73.3384L 74.941 73.2324C 75.129 73.6314 75.277 73.9944 75.402 74.2444L 75.289 74.3074C 75.156 74.2404 75.09 74.2564 74.922 74.3504L 72.726 75.5214C 72.558 75.6114 72.547 75.6544 72.515 75.7914L 72.402 75.8504C 72.273 75.6034 72 75.1784 71.824 74.9164L 72.019 74.7954C 72.23 75.0534 72.355 75.1504 72.476 75.1854C 72.617 75.2284 72.801 75.1664 73.07 75.0214L 73.344 74.8774L 72.207 72.7524"
       id="path214" />
    <path
       style="stroke:none; fill-rule:evenodd; fill:#0018d1"
       d="M 68.195 74.4164C 68.008 73.8614 67.949 73.8424 67.469 73.9714L 67.398 73.7564L 69.226 73.1424L 69.297 73.3534C 68.836 73.5414 68.805 73.5964 68.988 74.1464L 69.566 75.8614C 69.758 76.4244 69.812 76.4354 70.293 76.3104L 70.363 76.5214L 68.535 77.1394L 68.465 76.9244C 68.926 76.7364 68.961 76.6894 68.769 76.1314L 68.195 74.4164"
       id="path216" />
    <path
       style="stroke:none; fill-rule:evenodd; fill:#0018d1"
       d="M 65.707 75.3924C 65.523 75.0174 65.019 74.5104 64.492 74.5964C 64.144 74.6504 63.918 74.9084 63.969 75.2174C 64.019 75.5294 64.25 75.7444 64.68 75.8384L 64.902 75.8814C 65.39 75.9904 65.926 76.1784 66.012 76.7174C 66.117 77.3614 65.707 77.9164 64.797 78.0644C 64.457 78.1194 64.082 78.0494 63.933 78.0414C 63.867 77.8344 63.793 77.5644 63.672 77.1784L 63.914 77.1074C 64.109 77.5254 64.441 77.8304 64.863 77.7644C 65.18 77.7094 65.371 77.4434 65.32 77.1504C 65.273 76.8614 65.015 76.7244 64.691 76.6624L 64.48 76.6234C 63.89 76.5174 63.351 76.2994 63.242 75.6664C 63.129 74.9714 63.664 74.4394 64.527 74.2994C 65.055 74.2134 65.449 74.3504 65.597 74.4164C 65.664 74.5294 65.82 74.9744 65.953 75.3424L 65.711 75.3964"
       id="path218" />
    <path
       style="stroke:none; fill-rule:evenodd; fill:#0018d1"
       d="M 59.726 76.6664C 59.726 76.1704 60.117 75.7674 60.597 75.7674C 61.074 75.7674 61.476 76.1704 61.476 76.6664C 61.476 77.1504 61.074 77.5604 60.597 77.5604C 60.117 77.5604 59.726 77.1504 59.726 76.6664"
       id="path220" />
    <path
       style="stroke:none; fill-rule:evenodd; fill:#0018d1"
       d="M 50.68 35.0024L 50.676 35.0024C 50.676 35.0024 50.676 35.0064 50.68 35.0024"
       id="path222" />
    <path
       style="stroke:none; fill-rule:evenodd; fill:#0018d1"
       d="M 80.586 19.5104C 80.57 19.4904 80.555 19.4674 80.539 19.4474L 80.539 30.6784C 80.781 30.6314 81.043 30.7014 81.234 30.8894C 81.25 30.9084 81.265 30.9284 81.281 30.9474C 80.992 30.9004 80.683 30.9864 80.465 31.2094C 80.238 31.4324 80.152 31.7364 80.199 32.0254C 80.269 32.0884 80.347 32.1394 80.433 32.1704C 80.402 32.2714 80.058 33.2914 78.781 33.2914C 78.133 33.2914 77.312 32.7604 77.312 31.8504C 77.312 31.8504 77.383 31.7174 77.558 31.6584C 77.648 31.9824 77.945 32.2214 78.301 32.2214C 78.726 32.2214 79.07 31.8734 79.07 31.4474C 79.07 31.0254 78.726 30.6784 78.301 30.6784C 77.89 30.6784 77.555 30.9984 77.531 31.4044C 77.433 31.4164 77.203 31.3964 77.176 30.9594C 77.539 30.9004 77.82 30.5844 77.82 30.2014C 77.82 29.7754 77.476 29.4324 77.051 29.4324C 76.625 29.4324 76.281 29.7754 76.281 30.2014C 76.281 30.5844 76.558 30.9004 76.926 30.9594C 76.898 31.3964 76.668 31.4164 76.566 31.4044C 76.543 30.9984 76.211 30.6784 75.801 30.6784C 75.375 30.6784 75.031 31.0254 75.031 31.4474C 75.031 31.8734 75.375 32.2214 75.801 32.2214C 76.152 32.2214 76.449 31.9824 76.543 31.6584C 76.719 31.7174 76.785 31.8504 76.785 31.8504C 76.785 32.7644 75.969 33.2914 75.32 33.2914C 74.043 33.2914 73.695 32.2714 73.664 32.1704C 73.961 32.0604 74.168 31.7794 74.168 31.4474C 74.168 31.2564 74.097 31.0804 73.98 30.9474C 73.691 30.9004 73.387 30.9864 73.164 31.2094C 72.941 31.4324 72.855 31.7364 72.902 32.0254C 72.883 32.0104 72.863 31.9984 72.844 31.9784C 72.543 31.6784 72.543 31.1894 72.844 30.8894C 73.019 30.7174 73.254 30.6464 73.48 30.6744L 73.48 18.3104C 73.48 18.3104 73.644 8.84641 60.324 8.93942C 46.351 9.12341 47.418 18.2794 47.418 18.2794L 47.418 30.7174C 47.672 30.6504 47.949 30.7174 48.148 30.9164C 48.449 31.2174 48.449 31.7054 48.148 32.0064C 48.129 32.0254 48.109 32.0374 48.09 32.0534C 48.137 31.7644 48.051 31.4594 47.828 31.2364C 47.609 31.0174 47.312 30.9324 47.031 30.9714C 46.918 31.1034 46.851 31.2754 46.851 31.4594C 46.851 31.7914 47.062 32.0724 47.355 32.1824C 47.324 32.2834 46.976 33.3034 45.699 33.3034C 45.051 33.3034 44.234 32.7714 44.234 31.8614C 44.234 31.8614 44.301 31.7284 44.476 31.6704C 44.57 31.9904 44.867 32.2284 45.219 32.2284C 45.644 32.2284 45.988 31.8854 45.988 31.4594C 45.988 31.0334 45.644 30.6894 45.219 30.6894C 44.808 30.6894 44.476 31.0104 44.449 31.4164C 44.351 31.4284 44.121 31.4084 44.094 30.9714C 44.461 30.9124 44.738 30.5964 44.738 30.2134C 44.738 29.7874 44.394 29.4394 43.969 29.4394C 43.543 29.4394 43.199 29.7874 43.199 30.2134C 43.199 30.5964 43.48 30.9124 43.844 30.9714C 43.816 31.4084 43.586 31.4284 43.488 31.4164C 43.465 31.0104 43.129 30.6894 42.719 30.6894C 42.293 30.6894 41.949 31.0334 41.949 31.4594C 41.949 31.8854 42.293 32.2284 42.719 32.2284C 43.07 32.2284 43.367 31.9904 43.461 31.6704C 43.637 31.7284 43.707 31.8614 43.707 31.8614C 43.707 32.7714 42.887 33.3034 42.238 33.3034C 41.316 33.3034 40.883 32.7714 40.699 32.4394L 40.699 32.1274C 40.75 32.1004 40.797 32.0604 40.84 32.0214C 40.875 31.7404 40.793 31.4474 40.574 31.2324C 40.351 31.0104 40.047 30.9244 39.758 30.9714C 39.773 30.9514 39.785 30.9324 39.805 30.9124C 40.047 30.6704 40.406 30.6274 40.695 30.7714L 40.695 19.4434C 40.68 19.4674 40.668 19.4864 40.648 19.5104C 36.355 25.2174 33.738 32.7674 33.738 41.0414C 33.738 45.6934 34.566 50.1194 36.058 54.1154C 36.105 54.2484 36.156 54.3774 36.207 54.5104L 38.805 54.5024C 38.484 54.7714 38.305 55.0804 38.305 55.4044C 38.305 55.5924 38.355 55.7284 38.461 55.8344C 38.683 56.0574 39.101 56.0374 39.633 56.0334L 48.215 56.0454C 48.996 56.0414 49.422 56.0374 49.422 55.4044C 49.422 55.0764 49.242 54.7674 48.918 54.4944L 51.398 54.4944C 51.137 54.3504 50.765 54.1274 50.246 53.7674C 48.558 52.6154 50.066 51.5254 50.535 51.1624C 51.988 50.0334 51.332 49.4244 50.961 48.7174C 50.961 48.7174 49.98 47.1074 52.367 43.6194C 52.715 43.1074 53.344 42.4594 53.668 41.1664C 53.668 41.1664 52.582 42.1354 52.531 40.2834C 52.515 39.8344 53.637 32.7484 56.34 28.5254C 56.547 28.2054 56.793 28.3424 56.605 28.6074C 56.558 28.6744 55.375 30.9324 55.105 32.2094C 55.047 32.4984 55.129 32.5374 55.254 32.6424C 55.336 32.7174 55.594 32.7954 55.48 33.1274C 55.328 33.5884 54.043 36.5604 53.621 38.9354C 53.496 39.6544 53.933 39.7954 54.129 39.2404C 54.363 38.5764 54.973 38.9244 54.98 39.9204C 54.98 40.0804 54.992 40.2674 54.992 40.4864C 54.988 40.9674 54.621 43.3504 53.523 44.9634C 53.523 44.9634 53.297 45.4284 53.172 45.6074C 52.961 45.8924 52.801 45.5924 52.801 45.5924C 52.75 45.3504 52.301 45.2524 51.914 45.7054C 50.883 46.9044 51.43 48.2834 52.172 47.9744C 52.527 47.8264 52.914 47.3964 53.043 47.2014C 53.375 46.7014 53.551 46.2364 53.637 46.0764C 54.265 44.9244 54.586 45.2714 54.347 46.1274C 54.051 47.1664 53.832 48.6114 53.058 49.8034C 52.273 51.0064 52.238 50.3964 51.508 51.0604C 51.312 51.2364 51.14 51.3614 50.976 51.5334C 50.015 52.5214 52.496 52.8654 55.058 52.8034C 55.097 51.4904 55.265 47.6194 55.363 46.1424C 55.41 45.4204 55.41 43.7134 55.433 43.4714C 55.484 42.9514 55.555 42.6504 55.578 42.2174C 55.652 40.8534 55.633 40.7714 55.691 40.4784C 55.726 40.3144 55.949 40.2054 56.094 40.2214C 56.847 40.3184 57.301 40.3504 57.699 40.2794C 57.781 40.2674 57.933 40.5024 57.973 40.3964C 58.012 40.3034 57.973 41.2714 58.223 41.3034C 58.441 41.3264 58.508 39.9284 58.508 39.9284C 58.312 39.9434 57.871 39.6854 57.64 39.7094C 56.797 39.7954 55.676 39.6034 55.488 39.4824C 55.086 39.2214 55.308 38.3574 55.308 38.3574C 55.683 35.1234 56.094 33.4004 56.094 33.4004C 56.219 32.8304 56.426 32.3814 56.086 32.1394C 55.328 31.5964 57.305 28.8964 57.445 28.0964C 57.437 28.1544 58.613 27.0534 59.269 26.8074L 59.269 26.6234C 59.109 26.5684 58.676 26.7874 58.387 26.7874C 58.121 26.8694 57.769 27.1004 57.191 27.5144C 56.762 27.8184 56.406 27.9984 55.781 28.1894C 55.781 28.1894 55.445 29.6464 54.332 30.7834C 54.164 30.9554 53.207 31.7674 52.605 30.2014C 52.523 29.9944 51.937 27.2054 53.301 25.9674C 53.773 25.5334 54.793 25.8854 54.976 26.2524C 54.976 26.2524 56.199 26.6584 57.5 25.6394C 57.625 25.5414 57.504 25.0684 57.777 24.7094C 57.988 24.4354 58.004 24.2094 58.004 23.9514C 58.004 23.7094 58.394 23.8894 58.406 24.0804C 58.422 24.3074 58.476 24.3344 58.406 24.6784C 58.375 24.8384 58.445 24.8734 58.648 24.7794C 59.086 24.5884 59.875 23.8894 60.133 23.6314C 60.277 23.4824 60.683 23.4674 60.406 23.8734C 60.226 24.1274 60.207 24.2484 59.785 24.6824C 59.707 24.7604 59.793 24.8814 59.918 24.8614C 60.148 24.8264 60.824 24.4864 60.91 24.4514C 61.101 24.3654 61.258 24.4434 61.23 24.6154C 61.23 24.6154 61.461 24.6394 61.394 24.8224C 61.34 24.9824 61.105 25.3104 60.691 25.5764C 60.484 25.7054 60.379 25.7444 60.379 25.7444C 60.285 25.8074 60.277 25.9164 60.437 25.9004C 60.633 25.8854 60.996 25.7874 61.055 25.8464C 61.195 25.9864 60.769 26.1894 60.644 26.2134C 60.515 26.2364 63.043 26.2604 64.058 26.7094L 64.062 25.8424C 64.062 25.8424 64.062 25.7404 63.797 25.6424C 63.668 25.4354 63.551 25.1314 63.715 24.8614C 63.738 24.8144 63.793 24.7674 63.851 24.7134C 64.156 24.4284 64.879 23.9984 64.25 22.4474C 64.144 22.1894 64.058 21.9714 64.035 21.8924L 63.812 21.9674C 63.847 22.0684 63.953 22.3264 64.031 22.5334C 64.484 23.7134 64 24.1464 63.687 24.3504C 63.418 24.5214 62.851 24.4394 62.805 24.5144C 62.64 24.7874 63.18 25.2604 63.277 25.4944C 62.996 25.4164 62.84 25.3854 62.32 25.3184L 61.015 21.2604C 61.015 21.2604 57.754 22.4434 56.508 25.0144C 56.422 25.1894 56.426 25.3034 56.426 25.3694C 56.426 25.5144 56.34 25.7674 56.07 25.8184C 55.812 25.8654 55.59 25.7604 55.476 25.5924C 54.976 24.8854 52.996 24.6074 50.433 24.8614L 50.988 24.0884C 50.988 24.0884 53.5 23.7954 55.32 24.6584C 55.473 24.7284 55.539 24.8034 55.433 24.5964C 55.273 24.2714 53.922 22.5604 52.172 21.1624C 52.172 21.1624 53.043 20.8964 53.14 20.9944C 53.371 21.2244 54.707 22.4394 54.93 22.7094C 55.039 22.8424 55.269 23.1194 55.269 23.1194C 55.269 23.1194 55.375 22.7564 55.461 22.5644C 55.461 22.5644 55.785 21.6464 56.129 20.8464C 56.191 20.6974 56.355 19.8614 57.25 19.5414C 57.508 19.4474 57.668 19.5144 58.34 19.3424L 58.879 19.2674C 58.75 19.4004 58.789 19.4514 58.789 19.4984C 58.789 20.2404 59.847 20.6784 60.969 20.6784C 62.066 20.6784 63.117 20.2054 63.152 19.4824C 63.347 19.6584 63.437 19.7134 63.742 19.8574C 64.355 20.1464 66.152 20.3924 65.933 24.3034C 65.91 24.7134 65.855 26.4674 65.949 26.8344C 66.051 27.2404 66.359 27.8894 66.504 28.2174C 66.687 28.4944 67.055 29.0454 67.195 29.2214C 67.473 29.5724 67.57 30.2134 67.039 30.2954C 66.734 30.3464 66.594 30.2754 66.594 30.2754C 66.594 30.2754 67.375 32.4714 67.375 33.6824C 67.375 34.0924 67.504 34.4044 67.547 34.5724C 67.555 34.6114 67.558 34.6504 67.566 34.6894L 67.82 34.9164C 67.984 35.0764 68.008 35.2484 67.984 35.3964C 68.387 35.6744 68.597 35.9904 68.715 36.3574C 68.965 37.1234 68.578 37.2644 68.578 37.2644C 68.668 39.1704 68.664 38.9984 68.637 40.9984C 68.594 44.3774 68.691 48.5764 67.574 52.3894C 67.305 53.2994 66.941 53.9864 66.601 54.4944L 72.015 54.4944C 71.691 54.7644 71.512 55.0724 71.512 55.4004C 71.512 55.5884 71.562 55.7284 71.668 55.8344C 71.887 56.0534 72.308 56.0494 72.836 56.0494L 73.027 56.0494C 73.027 56.0494 81.109 56.0494 81.113 56.0494L 81.418 56.0454C 82.199 56.0414 82.629 56.0374 82.629 55.4004C 82.629 55.0764 82.449 54.7794 82.125 54.5104L 85.031 54.5064C 85.082 54.3774 85.133 54.2484 85.18 54.1154C 86.672 50.1154 87.5 45.6894 87.5 41.0374C 87.5 32.7674 84.883 25.2174 80.59 19.5064L 80.586 19.5104zM 47.762 32.2214C 47.762 32.2214 47.769 32.3144 47.801 32.4474C 47.894 32.8264 48.195 33.5494 49.156 33.4944C 49.363 33.4824 49.547 33.4324 49.711 33.3504C 49.5 33.5104 49.242 33.6234 48.93 33.6424C 47.633 33.7134 47.539 32.3694 47.539 32.3694L 47.765 32.2214L 47.762 32.2214zM 37.469 31.5144C 37.769 31.2134 38.258 31.2134 38.558 31.5144C 38.859 31.8144 38.859 32.3034 38.558 32.6074C 38.543 32.6234 38.519 32.6394 38.504 32.6544C 38.547 32.3654 38.461 32.0574 38.238 31.8344C 38.015 31.6114 37.711 31.5254 37.422 31.5724C 37.437 31.5534 37.449 31.5334 37.469 31.5144zM 36.871 32.0064C 36.851 32.0254 36.832 32.0374 36.812 32.0534C 36.859 31.7644 36.773 31.4594 36.551 31.2364C 36.328 31.0144 36.019 30.9284 35.73 30.9744C 35.75 30.9514 35.762 30.9324 35.777 30.9164C 36.082 30.6154 36.57 30.6154 36.871 30.9164C 37.172 31.2174 37.172 31.7054 36.871 32.0064zM 37.547 32.6824C 37.801 33.1034 38.191 33.4634 38.777 33.4944C 39.051 33.5104 39.269 33.4634 39.445 33.3774C 39.242 33.5494 38.957 33.6624 38.551 33.6394C 37.965 33.6074 37.578 33.2484 37.32 32.8264L 37.547 32.6824zM 49.176 55.4044C 49.176 55.4594 49.172 55.5064 49.164 55.5494L 38.57 55.5494C 38.558 55.5064 38.551 55.4594 38.551 55.4044C 38.551 55.0844 38.797 54.7674 39.226 54.5024C 39.402 54.3924 39.609 54.2914 39.844 54.2054L 39.82 54.2054C 39.836 54.2054 39.847 54.2014 39.863 54.1974C 39.855 54.2014 39.851 54.2014 39.844 54.2054L 47.883 54.2054C 47.875 54.2014 47.871 54.2014 47.863 54.1974C 47.879 54.2014 47.89 54.2054 47.906 54.2054L 47.883 54.2054C 48.113 54.2914 48.316 54.3894 48.492 54.4984C 48.93 54.7644 49.18 55.0844 49.18 55.4044L 49.176 55.4044zM 51.035 30.9324C 51.336 30.6314 51.824 30.6314 52.125 30.9324C 52.426 31.2324 52.426 31.7214 52.125 32.0214C 52.109 32.0414 52.086 32.0534 52.066 32.0684C 52.113 31.7794 52.027 31.4744 51.805 31.2524C 51.582 31.0294 51.277 30.9434 50.988 30.9864C 51.004 30.9714 51.015 30.9474 51.035 30.9324zM 51.195 32.4474C 50.918 32.6894 50.64 33.2014 50.676 34.2914C 50.695 34.8814 50.683 34.9864 50.68 35.0024L 50.691 35.0024L 50.691 44.0964C 50.691 46.5334 49.375 48.6664 47.418 49.8184L 47.418 53.9594L 40.695 53.9594L 40.695 50.6704C 41.465 50.9784 42.297 51.1504 43.176 51.1504C 44.371 51.1504 45.492 50.8344 46.461 50.2754C 45.715 50.5684 44.902 50.7364 44.051 50.7364C 42.828 50.7364 41.68 50.4044 40.695 49.8264L 40.695 49.8264C 38.73 48.6744 37.406 46.5374 37.406 44.0964L 37.406 35.0024L 50.461 35.0024C 50.461 34.9084 50.461 34.7754 50.449 34.4354C 50.406 33.0494 50.867 32.5964 51.195 32.4474zM 50.465 31.5294C 50.765 31.8304 50.769 32.3184 50.465 32.6234C 50.449 32.6394 50.426 32.6504 50.406 32.6704C 50.453 32.3814 50.367 32.0724 50.144 31.8504C 49.922 31.6274 49.617 31.5414 49.328 31.5884C 49.344 31.5684 49.355 31.5494 49.375 31.5294C 49.676 31.2284 50.164 31.2284 50.465 31.5294zM 65.187 12.2054C 65.176 12.6234 64.883 13.6234 63.82 13.6234C 62.836 13.6234 62.547 13.3504 62.371 13.0254C 62.094 12.5254 61.672 12.3964 61.629 12.3424L 61.461 12.3964C 61.426 12.4904 61.707 12.7564 61.902 12.9784C 62.176 13.2914 62.305 13.9124 62.273 14.1394C 62.254 14.2674 62.277 14.3184 62.371 14.3504C 63.555 14.7094 63.371 15.5104 63.367 16.1194C 63.363 16.9324 64.726 17.0764 64.887 17.1744C 65.086 17.2954 64.879 17.4594 64.703 17.4904C 63.836 17.6624 63.121 17.7404 62.289 17.7874C 62.211 17.7914 62.277 17.7914 62.226 17.9004C 62.226 17.9004 62.148 18.1114 62.613 18.9044C 62.664 18.9864 62.723 19.0764 62.781 19.1664L 62.793 19.1744C 62.805 19.2244 62.808 19.2754 62.808 19.3304C 62.808 19.9714 61.98 20.4944 60.965 20.4944C 59.949 20.4944 59.121 19.9714 59.121 19.3304C 59.121 19.2524 59.129 19.2954 59.152 19.2214C 59.301 19.1854 59.691 19.1314 59.691 19.1314C 59.691 19.1314 59.66 18.9904 59.613 18.8384C 59.789 18.8964 59.918 18.8694 60.187 18.7834C 60.246 18.7644 60.336 18.7284 60.387 18.7054C 60.441 18.6784 60.48 18.6314 60.465 18.5764C 60.453 18.5174 60.394 18.4824 60.336 18.4984C 59.301 18.7524 58.945 17.9354 58.711 17.3964C 58.676 17.3224 58.648 17.2564 58.621 17.1974C 58.578 17.1194 58.566 17.0214 58.551 16.9044C 58.527 16.7484 58.504 16.5684 58.398 16.3734C 58.383 16.3424 58.363 16.2954 58.344 16.2404C 58.34 16.2174 58.332 16.1894 58.32 16.1624C 58.488 16.1074 58.633 16.0804 58.758 16.0724C 58.719 16.1234 58.695 16.1894 58.715 16.2564C 58.746 16.3774 58.867 16.4474 58.984 16.4204C 59.101 16.3894 59.176 16.2674 59.144 16.1464C 59.14 16.1274 58.984 16.0494 58.973 16.0294C 59.094 16.0604 59.25 15.9944 59.254 15.9984C 59.312 16.0294 59.387 16.0104 59.418 15.9474C 59.449 15.8894 59.426 15.8184 59.371 15.7834C 59.332 15.7644 59.031 15.8344 58.281 16.0064C 58.254 15.8964 58.226 15.7954 58.219 15.7524L 58.207 15.6704C 58.578 15.3574 59.543 15.4714 59.543 15.4714C 58.894 15.1894 58.695 15.1704 58.015 15.2524C 57.363 15.3344 57.07 15.6854 57.406 16.1194C 57.406 16.1194 58.109 17.1854 56.851 18.0494C 56.851 18.0494 57.949 18.1274 58.828 17.9864L 59.004 18.3184C 57.988 18.4474 56.793 18.5024 56.449 18.4674C 55.82 18.4044 56.172 18.2214 56.312 18.0884C 57.195 17.2484 57.117 17.1194 56.73 16.6854C 56.031 15.8964 56.808 15.4124 57.101 15.2174C 57.597 14.8854 57.695 14.5574 57.711 14.2014C 57.781 12.7054 58.582 12.2054 58.765 12.0174C 58.941 11.8384 58.898 11.6314 58.586 11.5684C 57.887 11.4354 57.765 11.9324 57.777 12.0884C 57.816 12.6354 57.726 13.1394 57.633 13.3224C 57.234 14.0644 56.433 13.9864 55.937 13.6114C 55.195 13.0494 55.621 12.0924 55.758 12.0064C 55.953 11.8854 55.902 11.7134 55.754 11.6154C 55.387 11.3774 55.359 10.8854 55.922 10.5214C 57.168 9.72443 58.461 10.9164 58.582 10.9984C 58.961 11.2484 59.066 10.8034 58.855 10.6824C 58.613 10.5454 58.551 10.4394 58.551 10.1194C 58.551 9.93542 58.695 9.50241 59.312 9.50241C 59.918 9.50241 60.023 9.85342 60.023 10.0964C 60.023 10.2994 60.012 10.6394 60.363 10.6394C 60.64 10.6394 60.543 10.2014 60.687 10.0574C 61.359 9.3894 62.14 9.93942 62.234 10.2014C 62.551 11.0494 61.945 11.4714 61.691 11.5684C 61.012 11.8264 62.336 12.2214 62.32 12.2214C 63.035 12.2214 63.223 11.6544 63.223 11.3184C 63.223 10.7714 64.344 10.8534 64.027 10.8534C 65.156 10.8534 65.207 11.6274 65.187 12.2054zM 82.461 31.5024C 82.762 31.2014 83.25 31.2014 83.551 31.5024C 83.57 31.5214 83.586 31.5414 83.597 31.5604C 83.308 31.5144 83.004 31.6004 82.781 31.8224C 82.558 32.0454 82.473 32.3534 82.519 32.6424C 82.5 32.6274 82.48 32.6114 82.461 32.5964C 82.16 32.2954 82.16 31.8034 82.461 31.5024zM 82.238 33.4824C 82.824 33.4514 83.215 33.0924 83.473 32.6704L 83.695 32.8184C 83.441 33.2364 83.051 33.5964 82.465 33.6314C 82.062 33.6504 81.777 33.5334 81.57 33.3654C 81.75 33.4514 81.969 33.4984 82.238 33.4824zM 77.344 39.0574L 80.383 39.0574L 80.383 42.7444L 78.867 42.7444L 78.867 41.8964C 78.922 41.9044 78.98 41.9124 79.035 41.9124C 79.293 41.9124 79.551 41.8344 79.711 41.6894C 79.914 41.5174 79.98 41.2714 79.98 40.9904L 79.98 41.1034C 79.98 40.7674 80 40.6034 80.012 40.5144L 79.769 40.5144C 79.785 40.5924 79.801 40.7244 79.805 40.9744C 79.797 41.4744 79.578 41.7404 79.14 41.7404C 79.035 41.7404 78.945 41.7244 78.867 41.6894L 78.867 40.9004L 78.519 40.9004L 78.519 40.3304C 78.519 40.0144 78.808 39.9984 79.082 39.9784L 79.082 39.8384L 77.57 39.8384L 77.57 39.9784C 77.867 39.9984 78.109 40.0144 78.109 40.3304L 78.109 40.9004L 77.707 40.9004L 77.707 40.9004L 77.344 40.9004L 77.344 39.0574zM 80.629 36.7994C 80.621 36.8464 80.555 36.8734 80.484 36.8574C 80.414 36.8424 80.363 36.7954 80.375 36.7484C 80.379 36.7244 80.398 36.7134 80.418 36.7014L 80.285 36.6394C 80.269 36.6314 80.262 36.6074 80.269 36.5884C 80.277 36.5724 80.301 36.5604 80.316 36.5724L 80.621 36.7174C 80.64 36.7244 80.648 36.7484 80.64 36.7644C 80.637 36.7714 80.629 36.7674 80.621 36.7714C 80.621 36.7794 80.633 36.7914 80.629 36.7994zM 80.555 37.1584C 80.875 37.2284 80.754 37.4434 80.738 37.5214C 80.738 37.5214 80.691 37.1544 80.215 37.3534C 80.215 37.3534 80.305 37.1074 80.555 37.1584zM 80.707 36.7914C 80.707 36.7714 80.723 36.7564 80.746 36.7564L 81.082 36.7404C 81.101 36.7404 81.117 36.7564 81.117 36.7754C 81.121 36.7994 81.101 36.8144 81.082 36.8144L 80.937 36.8184C 80.949 36.8384 80.961 36.8574 80.957 36.8774C 80.949 36.9244 80.883 36.9514 80.812 36.9354C 80.742 36.9244 80.691 36.8734 80.703 36.8264C 80.707 36.8184 80.719 36.8144 80.723 36.8074C 80.719 36.7994 80.711 36.7994 80.707 36.7914zM 80.926 39.1784C 80.926 39.1784 81.031 39.2994 80.863 39.3104C 80.816 39.3144 80.734 39.3344 80.629 39.3814L 80.629 39.1274C 80.726 39.1464 80.828 39.1664 80.926 39.1744L 80.926 39.1784zM 78.82 43.5414C 78.847 43.4204 78.867 43.2874 78.867 43.1544L 78.867 42.9904L 80.383 42.9904L 80.383 43.4824C 80.383 44.0334 80.246 44.5494 80 45.0024L 78.82 43.5454L 78.82 43.5414zM 78.828 46.2214C 78.39 46.4824 77.883 46.6464 77.344 46.6744L 77.344 44.8224C 77.449 44.8144 77.555 44.7954 77.652 44.7674L 78.828 46.2214zM 77.707 42.0604L 77.707 41.1464L 78.621 41.1464L 78.621 42.0604L 77.707 42.0604L 77.707 43.1004L 78.621 43.1004L 78.621 43.1544C 78.621 43.1974 78.617 43.2444 78.613 43.2874C 78.562 43.8384 78.199 44.2994 77.707 44.4904L 77.707 43.1004L 76.668 43.1004L 76.668 44.4904C 76.133 44.2794 75.754 43.7644 75.754 43.1544L 75.754 43.1004L 76.668 43.1004L 76.668 42.0604L 75.754 42.0604L 75.754 41.1464L 76.668 41.1464L 76.668 42.0604L 77.707 42.0604zM 73.875 36.3074C 73.847 36.3034 73.832 36.2834 73.832 36.2564C 73.836 36.2324 73.855 36.2134 73.883 36.2174L 73.98 36.2214C 73.98 36.2214 73.98 36.2174 73.984 36.2174C 73.984 36.2174 73.984 36.2214 73.988 36.2214L 74.199 36.2284C 74.226 36.2284 74.242 36.2364 74.242 36.2644C 74.238 36.2874 74.223 36.2914 74.195 36.2874L 74.062 36.2954C 74.066 36.3034 74.074 36.3104 74.074 36.3184C 74.074 36.3774 74.031 36.4244 73.984 36.4244C 73.933 36.4244 73.894 36.3774 73.894 36.3184C 73.894 36.3144 73.898 36.3104 73.898 36.3034L 73.875 36.3074zM 75.508 42.1114L 75.508 42.7444L 73.988 42.7444L 73.988 40.2364L 75.508 42.1154L 75.508 42.1114zM 75.191 39.0574L 77.097 39.0574L 77.097 40.9004L 76.683 40.9004L 75.191 39.0574zM 75.508 42.9904L 75.508 43.1544C 75.508 43.3264 75.531 43.4944 75.582 43.6504L 74.347 43.6504L 74.347 43.7874C 74.64 43.8074 74.883 43.8224 74.883 44.1424L 74.883 44.8814C 74.883 45.2284 74.965 45.4394 75.156 45.5644C 75.34 45.6854 75.582 45.7244 75.808 45.7244C 76.066 45.7244 76.324 45.6424 76.488 45.5024C 76.687 45.3264 76.754 45.0844 76.754 44.7994L 76.754 44.9124C 76.754 44.8614 76.758 44.8184 76.758 44.7754C 76.867 44.8074 76.98 44.8224 77.097 44.8264L 77.097 46.6744C 75.379 46.6274 73.992 45.2134 73.992 43.4824L 73.992 42.9904L 75.508 42.9904zM 75.64 43.8104C 75.816 44.2244 76.156 44.5534 76.574 44.7174C 76.574 44.7404 76.578 44.7604 76.578 44.7834C 76.574 45.2874 76.355 45.5534 75.918 45.5534C 75.484 45.5534 75.293 45.2914 75.293 44.8224L 75.293 44.1424C 75.293 43.9084 75.449 43.8384 75.64 43.8104zM 73.215 32.4354C 73.246 32.3034 73.254 32.2134 73.254 32.2134L 73.48 32.3574C 73.48 32.3574 73.383 33.7014 72.086 33.6314C 71.773 33.6114 71.515 33.5024 71.308 33.3384C 71.469 33.4204 71.652 33.4714 71.859 33.4824C 72.82 33.5374 73.121 32.8144 73.215 32.4354zM 70.539 31.5174C 70.84 31.2174 71.328 31.2174 71.629 31.5174C 71.648 31.5374 71.664 31.5574 71.68 31.5764C 71.39 31.5294 71.082 31.6154 70.859 31.8384C 70.637 32.0604 70.551 32.3694 70.597 32.6584C 70.578 32.6424 70.558 32.6274 70.539 32.6114C 70.238 32.3104 70.238 31.8224 70.539 31.5174zM 69.183 31.2244C 68.961 31.4474 68.875 31.7524 68.922 32.0414C 68.902 32.0254 68.883 32.0144 68.863 31.9944C 68.562 31.6934 68.562 31.2054 68.863 30.9044C 69.168 30.6034 69.656 30.6034 69.957 30.9044C 69.973 30.9244 69.988 30.9434 70.004 30.9634C 69.715 30.9164 69.406 31.0024 69.183 31.2244zM 70.008 32.4514C 70.336 32.6004 70.797 33.0534 70.754 34.4394C 70.746 34.7524 70.742 34.8894 70.742 34.9784L 70.828 35.0024L 77.097 35.0024L 77.097 38.8104L 76.375 38.8104C 76.406 38.7014 76.41 38.5684 76.375 38.4204C 76.316 38.1704 76.058 37.8224 75.855 37.5414C 75.793 37.4594 75.734 37.3814 75.695 37.3224C 75.582 37.1504 75.437 36.8184 75.539 36.6464C 75.586 36.5684 75.68 36.5144 75.793 36.5144C 75.894 36.5104 76.008 36.5294 76.008 36.5294C 75.762 37.1584 76.422 37.7644 76.73 37.7444C 76.469 37.0684 76.914 37.0104 76.746 36.5604C 76.597 36.1704 76.238 36.0844 76.023 36.3304C 76.023 36.3304 75.625 36.1464 75.359 36.5414C 75.137 36.8734 75.508 37.4164 75.523 37.4394C 75.566 37.5024 75.625 37.5844 75.687 37.6664C 75.871 37.9164 76.125 38.2604 76.172 38.4674C 76.207 38.6114 76.195 38.7284 76.148 38.8104L 75.394 38.8104C 75.195 38.6544 74.89 38.4394 74.644 38.3574C 74.476 38.3034 74.457 38.1394 74.582 38.1624C 74.687 38.1824 75.203 38.2604 75.371 37.9514C 75.371 37.9514 74.551 37.9324 74.551 37.3894C 74.551 37.3894 74.805 37.6074 75.074 37.4394C 75.074 37.4394 74.758 37.1424 74.859 36.8384C 74.894 36.7324 75.058 36.3854 74.93 36.2954C 74.875 36.2604 75.043 36.1274 75.144 36.1394C 75.144 36.1394 74.91 35.9164 74.691 36.1354C 74.668 36.1584 74.594 36.1504 74.547 36.1394C 74.445 36.1114 74.144 36.0104 74.027 36.0294C 73.969 36.0414 73.863 36.0454 73.703 36.2484C 73.703 36.2484 73.676 36.2714 73.515 36.2874C 73.449 36.2914 73.473 36.3894 73.48 36.5104C 73.488 36.5684 73.625 36.6154 73.965 36.7644C 74.047 36.7994 74 36.8924 73.941 36.9044C 73.887 36.9164 73.617 36.8694 73.551 36.9004C 73.492 36.9244 73.465 37.0454 73.519 37.1314C 73.555 37.1854 73.711 37.1584 73.746 37.1624C 73.808 37.1664 74.035 37.3504 73.832 37.5454C 73.555 37.8074 73.324 37.7914 73.062 37.6504L 71.914 36.8384C 71.914 36.8384 72 36.3344 71.621 36.1424C 71.621 36.1424 71.73 36.4004 71.68 36.5144C 71.68 36.5144 71.473 36.2914 71.297 36.2914C 71.297 36.2914 71.519 36.5684 71.512 36.6234C 71.512 36.6234 71.191 36.5334 71.105 36.6034C 71.105 36.6034 71.465 36.7644 71.465 36.8574C 71.465 36.9394 71.211 36.9634 71.097 36.9324C 71.097 36.9324 71.148 37.1824 71.566 37.1394C 71.566 37.1394 72.148 37.7714 72.699 38.1314C 72.754 38.1664 72.785 38.2094 72.797 38.2564C 72.57 38.4634 72.164 38.4594 72.164 38.4594C 72.34 38.6354 72.652 38.5684 72.738 38.6004C 72.629 38.7134 72.015 39.3034 71.914 39.4594C 71.832 39.5844 71.777 39.4784 71.746 39.4164C 71.652 39.2364 71.265 39.2174 71.105 39.4984C 71.105 39.4984 71.406 39.4904 71.48 39.5414C 71.48 39.5414 71.097 39.6784 71.191 39.9204C 71.191 39.9204 71.39 39.7524 71.57 39.7404C 71.57 39.7404 71.398 40.0964 71.609 40.1894C 71.609 40.1894 71.652 39.8774 71.863 39.8894C 72.062 39.8964 72.062 40.0884 72.062 40.1394C 72.062 40.1394 72.187 40.0644 72.187 39.8034C 72.187 39.6784 72.265 39.6464 72.312 39.6354C 72.355 39.6234 72.68 39.4204 73.262 38.8074C 73.262 38.8074 73.473 38.9324 73.742 39.0414L 73.742 39.5334C 73.605 39.6394 73.449 39.7994 73.293 40.0334C 73.23 40.1314 73.195 40.2174 72.894 40.2174C 72.894 40.2174 73.039 40.5494 73.289 40.5064C 73.289 40.5064 72.84 40.7244 72.601 40.9284C 72.504 41.0144 72.457 40.9634 72.387 40.9084C 72.305 40.8464 71.961 40.6074 71.812 41.0414C 71.812 41.0414 71.976 40.9434 72.074 41.0144C 72.074 41.0144 71.82 41.2484 71.879 41.5144C 71.879 41.5144 72.074 41.2524 72.219 41.3104C 72.289 41.3384 72.066 41.6074 72.312 41.7134C 72.312 41.7134 72.262 41.3184 72.558 41.3264C 72.558 41.3264 72.535 41.6074 72.789 41.6464C 72.789 41.6464 72.613 41.2014 72.879 41.1274C 72.922 41.1114 73.363 41.0804 73.746 40.9514L 73.746 42.7444L 70.523 42.7444L 70.523 35.0024L 70.523 34.9784C 70.515 34.9244 70.515 34.7644 70.527 34.2914C 70.562 33.2094 70.289 32.6934 70.008 32.4514zM 70.523 44.0964L 70.523 42.9904L 73.742 42.9904L 73.742 43.4824C 73.742 44.1194 73.922 44.7174 74.226 45.2324L 70.625 45.2324C 70.558 44.8614 70.523 44.4824 70.523 44.0964zM 71.765 47.9594L 77.097 47.9594L 77.097 50.7324C 76.269 50.7244 75.48 50.5604 74.75 50.2754C 75.723 50.8304 76.844 51.1504 78.039 51.1504C 78.926 51.1504 79.769 50.9744 80.543 50.6624L 80.535 53.9594L 73.461 53.9594L 73.469 49.6114C 72.808 49.1704 72.23 48.6074 71.765 47.9594zM 82.379 55.4044C 82.379 55.4634 82.375 55.5104 82.367 55.5534L 71.773 55.5534C 71.758 55.5104 71.754 55.4634 71.754 55.4044C 71.754 54.9514 72.234 54.5064 73.047 54.2054L 81.086 54.2054C 81.894 54.5064 82.379 54.9514 82.379 55.4044zM 83.805 44.0964C 83.805 46.3264 82.703 48.3034 81.012 49.5064L 81.012 49.5064C 79.973 50.2484 78.707 50.6934 77.344 50.7324L 77.344 46.9204C 77.941 46.8924 78.504 46.7094 78.984 46.4124C 79.469 46.1154 79.875 45.6974 80.164 45.2054C 80.176 45.1854 80.183 45.1664 80.195 45.1424C 80.394 45.1544 80.703 45.1154 81.156 44.9004C 81.801 44.5924 81.711 44.8224 81.711 44.8224C 81.711 44.8224 81.25 45.4984 80.941 45.6074C 80.941 45.6074 80.789 45.6194 80.847 45.6824C 80.847 45.6824 81.008 45.8034 81.172 45.6824C 81.711 45.2954 82 44.8504 82 44.8504C 82 44.8504 82.215 45.3144 82.738 45.2524L 82.648 45.6544C 82.648 45.6544 82.476 45.5924 82.433 45.6234C 82.387 45.6544 82.246 45.7284 82.387 45.7284C 82.496 45.7284 82.758 45.7954 82.801 45.6704C 82.816 45.6234 82.969 45.1934 82.969 44.9904C 82.969 44.9904 82.57 45.1504 82.508 44.8384C 82.496 44.7604 82.449 44.6544 82.449 44.6544C 82.449 44.6544 82.426 44.5764 82.316 44.5024C 82.558 44.4354 82.926 44.3104 83.023 44.1154C 83.058 44.0494 83.172 43.9124 83.14 43.8424C 83.125 43.8104 83.051 43.6894 82.98 43.6704C 82.808 43.6194 82.457 43.6824 82.262 43.8074C 81.906 44.0294 81.668 43.9244 81.605 43.8774C 81.578 43.8574 81.574 43.8074 81.59 43.7284C 81.672 43.7674 81.847 43.6744 81.926 43.6154C 82.031 43.5334 82.015 43.3814 81.89 43.3814C 81.523 43.3814 81.5 43.6074 81.5 43.6074C 81.441 43.7914 81.453 43.9084 81.535 43.9714C 81.687 44.0884 82.055 44.0684 82.32 43.9044C 82.515 43.7834 82.832 43.7444 82.945 43.7794C 82.98 43.7914 82.984 43.9324 82.984 43.9354C 83.004 43.9744 82.941 44.0254 82.922 44.0644C 82.832 44.2364 82.39 44.3694 82.156 44.4244C 82.074 44.3924 81.969 44.3734 81.832 44.3614C 81.586 44.3504 81.105 44.3734 81.105 44.3734C 81.015 44.3814 80.75 44.4324 80.504 44.4004C 80.586 44.1074 80.633 43.8034 80.633 43.4824L 80.633 42.9904L 83.805 42.9904L 83.805 44.0964zM 83.805 42.7444L 80.629 42.7444L 80.629 40.8464C 80.789 40.7674 80.914 40.6664 80.957 40.5254C 80.957 40.5254 80.758 40.4324 80.633 40.4004C 80.633 40.4004 81.312 39.9084 81.418 39.5644C 81.418 39.5644 81.558 39.5254 81.504 39.6034C 81.449 39.6784 81.469 39.7644 81.543 40.4554C 81.562 40.6544 81.469 40.8384 81.281 40.9324C 81.281 40.9324 81.562 41.0684 81.953 40.7404C 81.953 40.7404 82.199 41.5844 81.398 41.5964C 81.187 41.6004 80.769 41.6194 80.777 42.1424C 80.777 42.1424 81.031 41.8464 81.191 41.9004C 81.191 41.9004 81 42.1194 81.062 42.2794C 81.062 42.2794 81.332 41.9204 81.433 41.9594C 81.433 41.9594 81.281 42.2444 81.355 42.3504C 81.355 42.3504 81.539 41.9944 81.633 42.0064C 81.73 42.0174 81.805 42.1504 81.785 42.3304C 81.785 42.3304 82.062 42.2674 81.922 42.0064C 81.855 41.8894 81.808 41.9044 81.762 41.8384C 81.723 41.7754 83.113 41.2604 82.937 40.2324C 82.937 40.2324 82.715 40.4284 82.551 40.2754C 82.414 40.1504 82.308 39.9284 82.601 39.6854C 82.601 39.6854 82.476 39.6074 82.414 39.4354C 82.379 39.3534 82.375 39.2874 82.332 39.1934C 82.484 39.1974 82.758 39.1744 82.922 38.9944C 83.047 38.8534 83.082 38.6584 83.023 38.4084C 82.969 38.1584 82.711 37.8104 82.504 37.5294C 82.445 37.4474 82.387 37.3694 82.347 37.3104C 82.23 37.1424 82.086 36.8074 82.187 36.6394C 82.234 36.5604 82.332 36.5064 82.445 36.5024C 82.543 36.5024 82.656 36.5174 82.656 36.5174C 82.414 37.1504 83.074 37.7564 83.379 37.7324C 83.121 37.0574 83.566 37.0024 83.394 36.5494C 83.246 36.1584 82.887 36.0724 82.672 36.3184C 82.672 36.3184 82.273 36.1354 82.008 36.5294C 81.785 36.8654 82.156 37.4044 82.172 37.4284C 82.215 37.4904 82.273 37.5724 82.336 37.6544C 82.519 37.9044 82.773 38.2484 82.82 38.4554C 82.863 38.6354 82.844 38.7674 82.769 38.8504C 82.64 38.9904 82.367 38.9864 82.258 38.9744C 82.258 38.9744 81.695 38.4784 81.297 38.3464C 81.129 38.2914 80.844 37.9514 80.89 37.6894L 80.949 37.5534C 81.012 37.6424 81.351 37.5804 81.351 37.5804C 81.195 37.5214 81.168 37.1824 81.168 37.1824C 81.289 36.9984 81.258 36.5534 81.258 36.5534L 80.246 36.3384C 80 36.3814 80.183 36.8424 80 36.9674C 79.812 37.0884 79.629 37.0884 79.629 37.0884C 79.754 37.2714 80.027 37.3344 80.027 37.3344C 79.969 37.7054 79.738 37.6274 79.476 37.4904L 78.566 36.8264C 78.566 36.8264 78.648 36.3224 78.273 36.1354C 78.273 36.1354 78.383 36.3894 78.332 36.5064C 78.332 36.5064 78.125 36.2794 77.945 36.2794C 77.945 36.2794 78.172 36.5604 78.16 36.6114C 78.16 36.6114 77.844 36.5214 77.758 36.5964C 77.758 36.5964 78.113 36.7524 78.113 36.8464C 78.113 36.9324 77.863 36.9514 77.75 36.9204C 77.75 36.9204 77.801 37.1704 78.219 37.1314C 78.219 37.1314 78.801 37.7604 79.351 38.1194C 79.406 38.1544 79.437 38.1974 79.449 38.2444C 79.223 38.4514 78.816 38.4434 78.816 38.4434C 78.992 38.6234 79.133 38.6974 79.219 38.7284C 79.203 38.7444 79.176 38.7754 79.14 38.8074L 77.34 38.8074L 77.34 34.9984L 83.805 34.9984L 83.805 42.7404L 83.805 42.7444zM 84.457 31.2244C 84.234 31.4474 84.148 31.7524 84.195 32.0414C 84.176 32.0254 84.152 32.0144 84.137 31.9944C 83.836 31.6934 83.836 31.2054 84.137 30.9044C 84.437 30.6034 84.926 30.6034 85.226 30.9044C 85.246 30.9244 85.258 30.9434 85.273 30.9634C 84.984 30.9164 84.68 31.0024 84.457 31.2244"
       id="path224" />
  </g>
</svg>
